<svg xmlns="http://www.w3.org/2000/svg" fill="none" viewBox="0 0 160 160" height="160" width="160">
<circle fill="black" r="80" cy="80" cx="80"></circle>
<g clip-path="url(#clip0_586_669)">
<path fill="#0ACF83" d="M66.6683 120C74.0283 120 80.0016 114.027 80.0016 106.667V93.3334H66.6683C59.3083 93.3334 53.335 99.3068 53.335 106.667C53.335 114.027 59.3083 120 66.6683 120Z"></path>
<path fill="#A259FF" d="M53.334 80.0002C53.334 72.6402 59.3073 66.6669 66.6673 66.6669H80.0006V93.3335H66.6673C59.3073 93.3335 53.334 87.3601 53.334 80.0002Z"></path>
<path fill="#F24E1E" d="M53.334 53.3335C53.334 45.9735 59.3073 40.0001 66.6673 40.0001H80.0006V66.6668H66.6673C59.3073 66.6668 53.334 60.6935 53.334 53.3335Z"></path>
<path fill="#FF7262" d="M80.001 40.0002H93.3343C100.694 40.0002 106.668 45.9736 106.668 53.3336C106.668 60.6936 100.694 66.6669 93.3343 66.6669H80.001V40.0002Z"></path>
<path fill="#1ABCFE" d="M106.668 80.0002C106.668 87.3601 100.694 93.3335 93.3343 93.3335C85.9743 93.3335 80.001 87.3601 80.001 80.0002C80.001 72.6402 85.9743 66.6669 93.3343 66.6669C100.694 66.6669 106.668 72.6402 106.668 80.0002Z"></path>
</g>
<defs>
<clipPath id="clip0_586_669">
<rect transform="translate(40 40)" fill="white" height="80" width="80"></rect>
</clipPath>
</defs>
</svg>
