<svg xmlns="http://www.w3.org/2000/svg" fill="none" viewBox="0 0 160 160" height="160" width="160">
<circle fill="black" r="80" cy="80" cx="80"></circle>
<g clip-path="url(#clip0_962_221)">
<path fill="#010101" d="M50.5367 73.7147C47.6174 75.088 39.8907 81.2697 38.4025 83.1013C36.857 84.9328 36.3993 82.0711 38.0018 77.3205C39.2607 73.4857 42.4664 68.2771 47.8464 63.8128C50.9942 61.2372 57.92 57.517 62.1552 55.3418C63.014 54.8837 74.1177 50.1905 84.0196 47.8438C84.8784 47.6148 82.9895 49.2747 82.7031 50.1905C81.2149 54.5404 51.5092 73.1994 51.5092 73.1994L50.5367 73.7147Z"></path>
<path fill="#010101" d="M92.3764 126.2C92.8915 129.291 92.4338 129.52 89.2287 129.92C86.0233 130.321 83.6767 129.119 82.8182 128.318C81.9595 127.516 81.7881 125.742 82.6465 124.14C83.1619 123.109 83.6769 122.766 83.9633 121.507C84.2493 120.305 84.4784 120.019 84.7071 119.561C84.9358 119.16 84.9934 118.759 85.0505 115.955C85.1078 113.15 85.0505 107.884 85.3368 105.652C85.6232 103.363 95.5251 106.683 95.5251 106.683C95.5251 106.683 93.1781 112.521 92.5487 113.951C91.919 115.383 91.9763 118.13 91.9763 118.702C91.9763 119.274 91.7476 120.419 91.5756 120.476C91.4039 120.533 92.148 122.022 91.8043 122.88C91.5753 123.682 92.3194 125.742 92.3764 126.2Z"></path>
<path fill="#010101" d="M96.1533 38.686C95.8096 36.511 96.1533 32.2179 96.611 31.5314C98.0422 29.5852 105.597 29.3565 107.2 31.6458C107.887 32.6759 107.829 35.0799 107.715 36.6254C107.601 38.1706 107.2 41.4904 107.143 42.5781C107.086 43.3795 98.7863 44.6384 96.9547 42.4635C96.4394 41.8914 96.1533 38.686 96.1533 38.686Z"></path>
<path fill="#010101" d="M112.982 120.648C116.473 123.167 119.163 123.624 120.937 124.54C122.711 125.456 122.254 127.231 119.277 127.746C116.873 128.203 113.096 127.288 110.578 127.288C108.059 127.288 102.45 127.574 100.962 126.544C99.2448 125.342 99.9887 123.109 99.9887 123.109C100.447 121.85 101.591 119.046 101.248 116.756C100.904 114.467 100.446 113.208 99.5879 111.09C98.7295 108.972 98.1 103.764 98.9015 103.478C99.7029 103.191 99.4736 103.478 100.504 103.706C101.534 103.935 102.679 104.279 104.911 104.279C107.143 104.279 109.605 103.935 110.463 103.764C111.322 103.592 112.008 103.42 111.722 105.194C111.436 106.969 110.578 110.288 110.52 112.864C110.463 115.44 110.463 118.416 110.635 118.931C110.806 119.446 112.066 120.019 112.982 120.648Z"></path>
<path fill="#8AC640" d="M100.733 44.4097C94.4369 49.8474 82.2454 51.3353 64.1591 58.3181C59.5229 60.0924 47.16 65.4154 44.1836 70.9674C54.1999 65.1866 57.9203 73.1423 58.7214 81.327C59.4653 88.9967 63.3004 93.0034 73.1449 92.7742C83.2759 92.5454 86.3666 98.4405 89.171 105.366C94.6083 78.8657 103.308 73.7147 108.917 69.1931C120.823 59.52 106.17 42.4635 100.733 44.4097Z"></path>
<path fill="#8AC640" d="M100.733 44.4097C85.6223 49.6753 70.6834 50.9918 53.1122 61.8095C48.934 64.3852 40.1195 70.223 38.4023 81.3843C44.8125 74.2868 59.6367 65.3583 77.7807 59.6919C86.9385 56.8299 93.6353 54.9413 101.763 51.7932C101.191 48.1298 101.191 46.699 100.733 44.4097Z"></path>
<path fill="#010101" d="M120.021 75.775C120.021 75.775 118.934 79.4955 116.759 80.6976C116.759 80.6976 115.156 81.27 111.951 79.4958C111.035 78.9807 110.349 77.2064 110.406 76.6338C110.463 75.2599 111.321 74.6305 111.321 74.6305C111.321 74.6305 112.237 73.085 113.325 73.1423C114.412 73.1994 116.244 73.3711 116.816 72.856C117.331 72.2836 120.136 73.8861 120.021 75.775Z"></path>
<path fill="#010101" d="M96.669 39.7735C96.669 39.7735 96.4403 42.6929 96.0395 44.5241C95.9822 44.8678 94.2653 45.0392 93.0059 45.5546C95.4098 52.4228 109.891 52.3655 111.78 48.9887C110.864 48.3592 109.032 47.3861 108.174 47.0428C107.315 46.6991 107.372 46.7564 107.315 45.1539C107.258 43.551 107.143 40.575 107.029 39.7735C106.914 38.9721 98.0425 38.9721 96.669 39.7735Z"></path>
<path fill="#F0EFEF" d="M97.2415 39.7735C97.2415 39.7735 97.2415 41.4334 97.0698 43.0359C97.0127 43.78 96.9554 44.2378 96.841 44.8102C96.7837 45.1538 98.787 46.5271 99.3594 49.5608C102.107 55.6849 108.46 52.6515 111.093 49.7325C110.177 49.1027 108.689 48.2443 106.972 47.5575C106.113 47.2139 106.514 46.47 106.457 44.8675C106.4 43.265 106.171 40.918 106.056 40.0596C105.941 39.2011 98.6153 38.9721 97.2415 39.7735Z"></path>
<path fill="#010101" d="M96.6692 39.7735C96.6692 39.7735 96.6118 40.804 96.4404 42.0058C97.1842 42.7496 98.1573 43.7801 98.9017 44.4098C99.4168 44.8678 100.676 44.8105 101.821 44.8105C102.851 44.8105 103.767 44.9249 104.167 44.6961C105.083 44.2381 106.4 43.0936 107.144 42.2348C107.087 41.2047 107.029 40.2316 106.972 39.7735C106.914 38.9721 98.0427 38.9721 96.6692 39.7735Z"></path>
<path fill="#010101" d="M101.877 44.1234C101.19 44.1234 100.389 44.0664 99.7591 43.9517C99.4728 43.8947 99.1867 43.723 98.9577 43.6083C98.557 43.322 98.1563 42.9789 97.6988 42.6352C96.7828 41.9484 96.7257 41.5477 96.7257 41.3763C97.1264 37.7702 96.6111 34.7368 96.6111 34.7368C96.6111 34.7368 96.2104 33.1913 98.3853 32.7906C100.56 32.3899 101.877 32.3329 101.877 32.3329C101.877 32.3329 103.251 32.3329 105.368 32.7906C107.543 33.1913 107.142 34.7368 107.142 34.7368C107.142 34.7368 106.627 37.7702 107.028 41.3763C107.028 41.5477 106.971 41.9484 106.055 42.6352C105.254 43.2076 104.624 43.8371 103.995 43.9517C103.365 44.0664 102.564 44.1234 101.877 44.1234Z"></path>
<path fill="#010101" d="M101.877 30.8447C98.0993 30.8447 97.355 31.8749 96.2675 33.0197C96.0388 33.3057 96.2102 35.0229 96.6112 38.6861H97.1262C97.1262 38.6861 96.7826 37.6556 96.8399 36.4538C96.8972 35.2519 97.1262 35.3093 96.9543 35.0229C96.7255 34.6793 96.2675 34.1069 97.2979 33.5347C98.3281 32.9623 99.9306 33.9925 101.877 34.0498C103.823 33.9925 105.483 32.9623 106.513 33.5347C107.543 34.1069 107.085 34.6793 106.856 35.0229C106.627 35.3663 106.913 35.2517 106.971 36.4538C107.028 37.6556 106.684 38.6861 106.684 38.6861H107.2C107.543 35.0229 107.772 33.4204 107.6 33.134C106.627 31.8749 105.654 30.9018 101.877 30.8447Z"></path>
<path fill="#010101" d="M120.021 75.9468C120.021 75.9468 118.934 79.4382 116.816 80.64C116.358 80.4113 116.415 80.0679 116.014 79.5526C115.9 79.3812 115.499 79.2662 115.328 79.0948C115.156 78.9231 115.213 78.6368 114.927 78.408C114.698 78.179 114.526 78.3507 114.297 78.179C114.069 77.9503 114.011 77.664 113.84 77.4925C113.725 77.3779 113.267 77.3209 113.153 77.2062C112.866 76.9199 110.348 76.4048 110.463 75.8324C110.691 74.9737 111.15 74.3442 111.15 74.3442C111.15 74.3442 112.237 72.7417 113.324 72.7987C114.412 72.856 115.442 73.0851 116.014 72.57C116.644 71.9973 120.193 74.1152 120.021 75.9468Z"></path>
<path fill="#010101" d="M112.58 50.6486C112.58 50.6486 116.186 49.7898 118.647 52.1368C121.109 54.5407 120.937 57.5168 120.193 59.3484C120.822 60.0924 121.967 62.1527 121.109 64.614C124.886 67.8191 123.226 72.7417 119.849 76.0041C119.849 76.0041 119.048 73.0277 115.843 72.8561C115.957 71.7115 112.867 70.7955 114.297 67.8191C112.122 67.3041 112.18 65.8159 111.836 63.9846C111.55 62.1527 112.58 50.6486 112.58 50.6486Z"></path>
<path fill="#F0EFEF" d="M111.264 52.2511C111.264 52.2511 115.442 50.1335 117.903 52.5375C120.364 54.9414 119.677 57.5741 118.934 59.4057C119.563 60.1495 121.051 62.2677 120.135 64.7857C119.964 65.3581 118.704 65.3581 117.788 66.8463C120.078 65.5295 121.509 65.8732 122.024 67.5328C122.825 70.1084 121.051 73.1992 119.506 74.9164C119.506 74.859 119.448 74.8017 119.448 74.7447C119.22 75.6034 118.933 77.263 117.216 79.0946C116.358 80.0104 115.671 79.896 114.698 79.667C113.553 79.3806 113.152 78.8653 111.55 78.0071C110.634 77.492 111.149 76.8623 111.149 76.3472C111.149 76.2329 111.264 76.0609 111.436 75.8322C111.55 75.5458 111.893 75.0883 112.408 74.573C112.408 74.573 113.152 73.5428 114.24 73.5999C115.328 73.6572 116.472 73.4285 116.759 73.1421C116.759 71.1389 114.469 71.0816 115.27 67.6474C115.328 67.4758 115.614 67.1894 116.53 67.075C115.156 66.7887 114.526 66.7314 113.553 65.8159C112.866 65.1864 112.351 64.385 112.179 63.3549C111.836 61.5806 111.264 52.2511 111.264 52.2511Z"></path>
<path fill="#010101" d="M99.187 48.6453C98.8436 48.1873 97.0694 45.898 93.6923 44.9822C92.7192 44.6959 92.0898 45.4973 91.117 46.0697C90.8306 45.898 89.5715 45.3256 88.8847 45.726C88.1979 46.1264 87.7402 46.5274 87.0531 46.8135C86.7095 46.6418 85.794 46.6418 85.0499 46.9279C84.3058 47.1569 83.161 47.6719 82.0735 49.1601C81.3867 51.6214 94.2074 49.7896 94.2074 49.7896L99.187 48.6453Z"></path>
<path fill="#8AC640" d="M99.3016 48.6453C97.4698 48.0156 97.7561 45.8979 93.6923 45.5546C92.8909 45.4972 92.3758 46.1267 91.8034 46.5274C92.0897 46.8137 92.3758 47.2715 92.5475 47.7292C92.0324 47.1571 91.1166 46.4127 90.2006 46.241C89.3421 46.0696 88.7697 46.6991 87.8539 47.1571C88.0254 47.3285 88.1973 47.6149 88.4261 47.9585C87.6246 47.4434 87.0525 47.2718 85.9651 47.6722C85.221 47.9009 83.7901 48.5306 82.7026 50.0761C82.0159 52.5374 94.2644 49.7898 94.2644 49.7898L99.3016 48.6453Z"></path>
<path fill="#010101" d="M110.062 49.561C110.062 49.561 110.062 48.9313 110.005 48.3592C110.005 48.2448 109.547 47.9585 109.547 47.8441L109.433 47.7294C109.433 47.7294 110.348 47.2144 111.035 47.5007C111.779 47.7294 112.18 48.7025 112.18 48.7025C113.496 48.2448 113.611 48.7599 114.24 49.4466C115.614 49.1603 115.785 49.6754 116.644 50.9348C116.644 50.9348 115.614 50.7631 113.611 51.1062C111.665 51.3923 110.062 49.5037 110.062 49.561Z"></path>
<path fill="#8AC640" d="M109.833 49.2748C109.833 49.2748 110.177 48.9884 110.062 48.9311C110.691 48.5877 111.55 48.1873 111.951 49.2748C113.267 48.8167 113.439 49.4465 114.069 50.1335C115.671 49.3894 115.785 50.3049 115.9 50.7056C115.385 50.7056 114.641 50.763 113.611 50.8773C111.665 51.1637 109.776 49.2175 109.833 49.2748Z"></path>
<path fill="#010101" d="M90.3729 47.8439C90.3729 47.8439 93.6354 48.9884 96.3827 48.8167C99.1301 48.588 103.823 48.3589 106.342 49.8471C106.342 49.8471 108.917 48.9311 111.321 49.5608C113.726 50.1902 118.132 54.3114 116.816 58.6613C116.702 58.9476 115.958 59.4054 115.099 59.6917C115.099 59.6917 115.557 61.6376 114.756 63.2402C113.954 64.7857 112.18 67.762 112.123 71.8829C112.066 72.5697 111.951 74.0005 111.837 74.6873C107.372 74.5159 100.504 72.8557 93.75 72.9704C93.8071 72.2266 93.8644 71.7686 93.9217 71.0245H94.0931C93.7497 69.1356 93.6354 68.1625 93.2917 66.7316C91.1168 65.3581 88.8272 63.7555 86.8815 60.7219C84.9926 57.6882 90.3729 47.8439 90.3729 47.8439Z"></path>
<path fill="#010101" d="M112.466 78.7515C112.466 78.7515 116.015 91.458 111.837 96.781C111.837 96.781 112.466 99.242 111.036 101.875C110.807 103.02 110.52 104.05 110.349 105.194C109.605 109.945 108.345 111.948 108.002 119.561L104.567 119.504C104.567 119.504 104.167 114.009 102.965 111.09C102.278 109.43 99.5879 107.198 99.7028 104.966C99.8172 103.249 100.161 101.818 103.08 99.5281C103.309 96.2086 99.9889 93.0603 100.504 80.6974L112.466 78.7515Z"></path>
<path fill="#F0EFEF" d="M111.436 78.2361C112.351 84.0742 114.469 92.7169 110.634 96.9521C110.806 97.7535 110.92 98.8983 110.691 100.215C110.577 100.901 110.348 101.645 110.062 102.447C109.489 103.82 109.26 105.824 109.089 107.025C108.345 111.776 108.345 112.005 108.001 119.618L104.567 119.56C104.567 119.56 104.166 114.066 102.964 111.147C102.278 109.487 100.847 108.056 100.732 105.824C100.618 104.107 101.82 100.673 104.682 100.787C104.51 93.8617 101.305 95.2352 100.446 80.8117L111.436 78.2361Z"></path>
<path fill="#F0EFEF" d="M90.3725 47.8439C90.3725 47.8439 91.6317 48.2446 93.0052 48.3589C94.379 48.4733 95.8672 48.3589 97.1834 48.3016C99.9307 48.0729 103.823 47.7865 106.399 49.2747C106.399 49.2747 107.829 48.8167 109.375 48.9311C110.062 48.9884 110.749 49.5608 111.55 49.7898C114.068 50.4192 116.472 54.5974 115.384 58.3752C115.27 58.6616 114.469 58.3752 113.553 58.6616C113.724 59.463 113.839 61.2945 112.923 63.2405C111.95 65.1867 110.691 67.705 110.92 72.5129C104.91 72.2266 102.22 71.8262 96.2673 71.5398C95.7523 69.4219 95.4086 67.3043 95.3516 66.2168C96.153 65.8161 96.6104 65.473 97.2404 64.786C95.5235 65.0723 94.8365 64.9577 93.806 64.3853C92.7759 63.8129 90.9443 61.9813 90.0286 60.7795C89.9142 60.6648 89.2847 62.5534 87.8539 62.611C87.3385 61.8669 89.5135 59.749 89.1128 58.9479C87.6822 56.0286 90.3725 47.8439 90.3725 47.8439Z"></path>
<path fill="#010101" d="M111.893 73.4855C111.893 73.4855 112.007 75.5461 112.007 76.0611C112.007 76.6335 112.465 78.3505 112.522 79.1519C111.893 80.2393 109.145 82.7006 104.166 83.6164C99.2436 84.6465 92.7188 76.9199 92.7188 76.9199C92.8904 76.1758 93.4628 74.0006 93.8635 72.856C93.9209 72.7417 94.0352 72.4553 94.0352 72.341C94.5506 71.5969 111.893 73.4855 111.893 73.4855Z"></path>
<path fill="#F0EFEF" d="M110.634 73.6575C110.634 75.0883 110.863 76.1188 111.035 77.0345C111.321 78.6944 111.779 79.7819 111.779 80.8694C111.779 84.1888 107.429 83.6164 103.766 83.7311C98.8432 84.7615 94.665 77.0345 94.665 77.0345C95.0084 75.7181 95.2374 74.2302 95.7525 72.9707C95.8096 72.2839 95.9242 71.4255 95.9812 71.0248C102.964 71.0248 107.886 71.4255 110.748 71.7113C110.863 72.341 110.749 73.4285 110.634 73.6575Z"></path>
<path fill="#010101" d="M105.139 81.0407C105.139 81.0407 102.106 74.2869 93.0053 76.2904C90.8306 82.4145 87.9113 89.4547 89.8002 97.067C87.9113 99.6427 85.7363 101.074 85.7363 105.824C85.7363 110.575 85.9653 111.376 85.9653 111.376L92.6619 111.72C92.6619 111.72 94.8368 108.915 95.6953 105.882C95.9243 105.023 96.1533 103.478 95.9816 101.704C96.2104 101.36 97.1835 100.559 97.2981 99.0135C97.2981 99.0135 100.561 97.2966 102.449 93.1184C104.224 89.3401 103.766 86.0777 105.139 81.0407Z"></path>
<path fill="#F0EFEF" d="M105.14 81.0407C104.968 80.4113 102.679 74.2298 94.2075 76.0611C89.2282 89.3401 91.0597 94.8347 91.8035 97.2384C88.4265 101.531 86.8812 102.447 87.5683 111.147H92.0328C94.0931 107.884 94.5512 106.682 94.6655 102.39C94.6655 102.218 94.0361 102.733 93.5781 103.306C93.9217 101.531 94.8945 101.188 95.6386 100.1C95.982 99.6424 96.2681 98.9556 96.2681 98.0398C100.275 95.3498 101.763 91.9727 102.621 88.4813C103.308 86.0776 104.109 82.1282 105.14 81.0407Z"></path>
<path fill="#010101" d="M91.0019 71.8259C91.0019 71.8259 92.5474 71.883 93.9213 72.341C95.2377 72.7988 95.2377 73.0848 95.7528 73.6575C96.2679 74.2302 97.5271 75.0883 97.2983 75.9468C97.1837 76.4048 96.8976 76.5192 96.4969 76.9199C96.3252 77.0916 95.0658 78.4651 94.7797 78.6368C94.608 78.7512 94.379 78.9232 94.2073 79.0375C94.0359 79.1519 93.5208 79.4956 93.3489 79.6099C92.7765 79.8963 92.3757 80.068 91.7463 80.0106C91.7463 80.0106 90.3155 79.9533 89.3994 78.9805C89.3994 78.9805 89.285 78.5225 89.514 78.2937C89.514 78.2937 88.3119 77.2633 87.9685 76.5765C87.6249 75.89 87.6249 74.9169 87.8542 74.4019C87.9685 73.8862 90.2005 72.4554 91.0019 71.8259Z"></path>
<path fill="#010101" d="M92.433 127.517L92.2613 128.948C92.2613 128.948 91.7462 129.577 87.9114 129.52C84.0193 129.463 82.9891 128.261 82.6457 127.631L82.417 126.143C82.417 126.143 83.1611 125.056 83.3328 125.056C84.5919 125.17 88.8848 126.887 91.8611 127.345C92.1466 127.345 92.2037 127.459 92.433 127.517Z"></path>
<path fill="#010101" d="M100.732 124.598C100.732 125.227 100.675 125.227 100.675 125.857C101.362 126.372 103.079 126.658 106.341 126.601C111.092 126.486 115.499 128.032 120.879 127.116L120.936 126.085L120.421 126.028L101.362 124.483L100.732 124.598Z"></path>
<path fill="#010101" d="M104.911 126.601C105.369 126.601 105.827 126.601 106.342 126.601C109.433 126.486 112.352 127.173 115.5 127.345C117.159 127.288 119.22 126.887 119.048 125.685L102.793 124.311C101.82 125.399 102.564 126.314 104.911 126.601Z"></path>
<path fill="#010101" d="M86.2515 102.504C86.7666 102.848 90.258 104.908 95.9244 104.622C95.8098 105.709 95.8671 107.827 93.3487 111.548C92.0896 113.379 91.0018 116.584 90.7731 120.648C90.8304 121.564 91.3455 122.365 90.6587 123.567C90.8875 124.311 91.8032 125.799 92.2613 126.715C92.719 127.631 92.948 128.661 89.9144 128.719C86.8236 128.776 81.844 128.432 82.5311 126.029C82.8747 124.769 83.8476 123.453 83.9622 122.938C84.0766 122.423 84.0766 120.877 85.0494 119.847C85.9081 116.985 85.6218 114.238 85.4504 111.662C85.164 108.972 85.1067 104.679 86.2515 102.504Z"></path>
<path fill="#010101" d="M91.5743 55.8569C95.6382 50.4193 92.2038 46.0697 85.6792 47.3859C83.0462 47.9009 80.4135 49.7328 80.2416 53.0522C79.3831 53.1666 77.4372 53.281 76.4641 56.8297C75.7203 59.5771 75.3196 60.0921 74.0028 61.4657C73.1443 62.4388 74.0601 64.442 74.6896 65.8732C76.8075 70.7955 83.3323 71.2532 87.7395 74.9737C89.2277 74.573 90.7729 72.9134 91.231 71.8259C87.5105 67.4184 88.3116 65.7015 86.8235 63.4122C88.4263 62.8395 92.0894 60.6075 91.5743 55.8569Z"></path>
<path fill="#F0EFEF" d="M90.7736 55.5135C91.0024 55.1698 91.4031 54.426 91.575 54.1396C91.6324 54.0823 92.2618 55.1698 92.3191 55.1128C93.8644 52.5941 94.2651 48.931 92.4905 48.5876C92.0898 48.5303 91.346 48.3589 90.7163 48.1296C89.5718 47.7289 88.5416 47.7289 86.7098 48.0726C84.1915 48.5303 81.6731 50.3619 81.6731 52.9949C81.6731 53.1665 83.4471 53.6816 83.9625 55.7995C83.1037 54.5974 81.6155 53.2809 79.8413 54.4257C77.9524 55.6275 78.9255 58.3749 76.4072 61.2366C75.5485 62.2097 75.6631 63.3545 76.5786 65.6438C78.0668 69.2499 85.107 71.1958 88.9418 74.6299C89.8576 74.2292 90.487 73.3134 90.945 72.6267C88.3694 69.9367 87.339 67.4181 86.5951 65.5865C85.6794 63.4689 84.6489 62.267 82.6457 60.6639C83.6761 61.0646 84.4775 61.4653 84.935 61.8087C85.4501 62.1521 86.1942 62.2094 86.8812 61.9804C89.3428 61.1225 90.6593 57.6881 90.7736 55.5135Z"></path>
<path fill="#010101" d="M115.671 56.4292C115.5 58.6042 113.897 57.5167 113.039 57.116C111.321 56.3719 109.604 55.8568 107.601 55.8568C105.598 55.8568 103.022 56.0285 100.79 56.6009C97.6993 57.4594 96.7832 57.4023 95.4097 56.7153C94.0361 55.9712 91.6325 54.1396 91.6325 54.1396C91.6325 54.1396 91.5751 54.712 92.1475 55.4561C92.8913 56.3719 94.5515 57.5167 96.7835 58.2605C97.871 58.6042 98.7297 58.3749 99.7028 58.1462C104.797 56.887 110.177 56.658 114.698 59.4053C114.927 59.5197 115.729 59.1763 116.072 58.6612C116.53 57.9174 115.671 56.4292 115.671 56.4292Z"></path>
<path fill="#0A1825" d="M89.6289 78.2361C90.0867 78.5224 90.6591 78.6941 91.2885 79.2092C91.2885 79.2092 90.7734 79.2092 90.5447 78.9805C90.2583 78.8088 89.6859 78.2937 89.6289 78.2361Z"></path>
<path fill="#F0EFEF" d="M106.17 32.848C105.999 32.3329 104.739 31.4169 101.82 31.4169C98.6722 31.4169 97.7565 32.39 97.6994 32.905C97.6994 33.0767 97.4704 34.9086 97.4131 35.6524C97.4131 35.6524 97.4131 36.5682 97.4701 37.9417C97.5275 38.8575 97.7565 39.3726 97.8708 40.5747C97.9852 41.8336 98.3289 42.635 98.9583 43.6654C99.2446 43.8368 99.4734 44.0088 99.7597 44.0661C100.905 44.2949 102.908 44.3522 103.995 44.0661C104.625 43.8944 105.426 42.807 105.598 41.8338C105.827 40.632 106.056 39.7733 106.113 39.0295C106.227 38.2857 106.285 36.6255 106.342 36.1675C106.514 34.9086 106.227 32.9624 106.17 32.848Z"></path>
<path fill="#010101" d="M100.16 103.592C100.16 103.592 103.194 104.908 110.692 103.764C110.692 103.764 108.574 114.41 109.547 119.732C109.547 119.732 110.52 121.106 117.732 123.739C117.732 123.739 120.937 124.54 120.823 126.143C120.823 126.143 120.937 126.486 117.045 126.372C113.153 126.257 109.49 125.57 106.914 125.57C104.339 125.57 101.591 125.685 101.133 124.941C100.618 124.254 101.248 122.48 101.992 121.449C102.794 120.362 102.564 119.56 102.507 117.615C102.335 112.521 98.4429 107.255 100.16 103.592Z"></path>
<path fill="#8AC640" d="M99.5305 104.565C99.1298 105.137 99.5875 107.312 100.16 109.43C100.732 111.548 101.992 112.807 102.278 116.298C102.564 119.732 102.621 120.19 101.648 122.193C100.675 124.196 100.389 126.028 103.766 126.085C107.142 126.143 108.974 126.028 112.408 126.543C115.843 127.059 117.045 127.23 118.934 126.944C120.822 126.658 121.223 126.028 120.422 125.456C119.62 124.884 116.301 124.254 114.87 123.109C113.496 122.079 109.604 120.362 109.547 119.904C109.375 118.358 109.318 112.749 109.604 110.918C109.89 109.086 110.291 106.453 110.405 105.767C110.52 105.08 111.092 104.393 110.119 104.622C109.146 104.85 105.483 105.366 102.736 105.194C99.9885 105.023 99.7024 104.393 99.5305 104.565Z"></path>
<path fill="#010101" d="M101.476 122.251C102.449 122.709 103.88 123.052 104.968 123.052C104.968 123.052 104.567 124.941 105.196 126.086C105.826 127.23 100.617 126.544 100.617 126.544L100.389 122.48L101.476 122.251Z" opacity="0.3"></path>
<path fill="#010101" d="M116.644 127.173C117.56 126.887 118.19 125.857 117.446 124.884C116.644 123.911 115.957 123.739 116.988 123.682C118.018 123.625 121.795 125.914 121.795 125.914L119.849 127.688L116.644 127.173Z" opacity="0.3"></path>
<path fill="#010101" d="M99.3585 106.797C100.675 107.255 102.678 107.369 104.395 107.312C106.112 107.255 108.688 107.026 110.348 106.454C112.008 105.881 111.321 107.083 111.321 107.083L110.405 107.942C110.405 107.942 108.23 108.8 104.682 108.743C100.504 108.686 99.2441 108.228 99.2441 108.228L99.3585 106.797Z" opacity="0.3"></path>
<path fill="#010101" d="M99.4727 109.659C100.789 110.117 102.792 110.231 104.51 110.174C106.227 110.117 108.516 110.117 110.176 109.487C110.863 109.258 110.462 110.231 110.462 110.231L110.176 110.746C110.176 110.746 107.944 111.548 104.452 111.49C100.274 111.433 99.53 111.089 99.53 111.089L99.4727 109.659Z" opacity="0.3"></path>
<path fill="#010101" d="M95.6953 69.5365C95.6953 69.9372 100.16 72.1692 102.621 72.6272C105.082 73.085 110.233 72.6272 111.035 72.4555L110.92 73.2569C110.92 73.2569 104.796 74.1727 100.103 72.9136C95.409 71.6544 95.9243 71.3681 95.9243 71.3681L95.6953 69.5365Z"></path>
<path fill="#F0EFEF" d="M86.1377 118.359C86.8245 118.702 89.2857 119.332 90.8883 118.988C91.117 118.931 90.8883 115.039 91.518 113.265C92.4338 110.803 93.922 108.8 94.6085 104.451C92.2045 104.222 89.4574 103.592 88.0263 103.134C86.195 108.743 86.8247 113.551 86.1377 118.359Z"></path>
<path fill="#F0EFEF" d="M89.9726 121.965C90.3733 122.079 90.6594 122.537 90.774 122.251C91.0027 121.736 90.3733 120.763 90.316 120.076C90.316 120.019 90.316 120.076 90.316 120.019C89.8009 119.561 86.3095 119.504 86.5385 119.733C86.1378 120.477 85.5083 120.362 85.2796 121.85C85.1652 122.594 86.081 121.965 86.9392 121.907C85.394 122.938 83.6197 124.254 83.3334 125.399C82.99 127.001 83.5624 127.46 85.2796 128.318C86.7678 128.662 88.542 128.719 89.9155 128.662C91.4611 128.375 91.7474 127.631 91.2894 126.601C90.602 125.056 90.1443 123.052 89.9726 121.965Z"></path>
<path fill="#010101" d="M90.6016 47.6149C92.4905 48.7023 95.1235 48.4163 96.0963 48.359C96.3253 48.359 98.6149 47.9583 98.7293 48.0153C98.958 48.0726 98.958 48.2443 98.958 48.2443C98.958 48.2443 98.0996 48.7021 96.1537 48.8164C94.3221 48.9308 92.1471 48.8164 90.9453 48.2443C89.5142 47.6149 90.6016 47.6149 90.6016 47.6149Z"></path>
<path fill="#010101" d="M110.062 48.7023C110.405 48.9311 112.637 49.7898 113.61 50.82C114.469 51.736 114.011 51.6787 113.839 51.4497C113.61 51.1633 111.836 49.9615 111.149 49.6754C110.462 49.3894 109.604 48.874 109.604 48.7597C109.604 48.6453 110.062 48.7023 110.062 48.7023Z"></path>
<path fill="#F0EFEF" d="M90.3149 72.4553C91.9748 72.3409 93.692 72.7416 94.7794 73.8861C95.3518 74.4585 96.2676 75.088 96.1532 75.6604C96.1532 75.8321 95.8096 76.2901 95.5238 76.6335C95.3521 76.8622 94.837 77.3773 94.6651 77.5492C94.4363 77.7209 93.6349 78.3507 93.4632 78.465C93.2915 78.5797 93.0625 78.866 92.8908 78.9231C92.3187 79.2094 91.689 78.9804 91.1166 78.6943C90.5445 78.408 91.2312 78.3507 90.6015 77.8929C89.0563 76.8054 88.1976 76.0611 88.8273 73.9434C88.8843 73.5427 89.5138 73.0847 90.3149 72.4553Z"></path>
<path fill="#010101" d="M75.7209 59.3483C70.5696 61.4089 57.4624 67.934 53.7422 69.9373C56.8329 71.8832 58.2638 76.5765 58.7218 81.3271C58.7788 81.7851 58.8362 82.1858 58.8935 82.6435C58.9505 83.0443 59.0079 83.3303 59.0649 83.5023C59.0649 83.5596 59.0649 83.674 59.1222 83.731C62.4993 74.5162 74.5759 64.7859 75.0339 64.0419C75.2626 63.6985 74.7476 62.2103 75.549 60.7797C76.5794 58.9476 78.5829 58.1462 75.7209 59.3483Z" opacity="0.4"></path>
<path fill="#010101" d="M87.9687 102.562C90.6014 97.296 90.6587 92.2591 90.6014 86.3637C90.6014 83.9024 92.3757 80.411 91.4602 81.3841C88.0258 85.2186 79.3833 92.4308 73.1445 92.8312C81.9016 92.5451 85.3357 96.9523 87.9687 102.562Z" opacity="0.4"></path>
<path fill="#010101" d="M48.7051 74.8019C51.9675 72.4553 68.8523 63.4695 72.9161 62.21C76.9797 60.8935 75.7205 59.348 75.7205 59.348C75.7205 59.348 59.2364 66.4453 49.3918 72.5697"></path>
<path fill="#010101" d="M96.7835 58.2608C95.467 57.7457 94.4369 59.2912 94.7803 60.7794C95.1239 62.2676 98.2146 63.9271 98.0427 69.3648C97.9283 73.8293 96.9552 75.6606 96.9552 75.6606L94.7803 72.9135C94.7803 72.9135 94.4369 66.7318 93.6928 65.816C92.949 64.9003 90.6021 63.2404 89.6863 62.3819C88.7705 61.5232 90.7164 60.3787 90.6021 58.7758C90.4877 57.2306 91.5752 54.1399 91.5752 54.1399L96.7835 58.2608Z" opacity="0.4"></path>
<path fill="#010101" d="M104.74 82.6432C104.625 86.9358 105.598 93.2892 105.999 96.3229C106.399 99.3563 106.915 99.5853 105.999 100.959C105.083 102.276 103.881 104.451 103.881 104.451L99.9316 104.107C99.9316 104.107 103.08 100.1 103.251 99.3563C103.423 98.6125 101.649 92.9461 101.649 92.9461L104.74 82.6432Z" opacity="0.4"></path>
<path fill="#010101" d="M97.127 42.5781C97.9284 44.3521 98.9012 45.1535 100.446 45.6689C101.362 46.0123 104.968 46.4703 106.399 44.8675C107.029 44.1234 106.628 42.1201 106.628 42.1201L103.365 44.7528L98.9582 43.9517L98.4432 42.6352L97.127 42.5781Z" opacity="0.4"></path>
<path fill="#8AC640" d="M97.4695 46.5273C98.9577 47.5004 102.678 48.4162 103.708 48.5879C104.738 48.8167 106.398 47.5004 107.2 47.1571C108.058 46.7564 109.547 46.5273 111.264 48.0728C111.435 48.2445 110.863 48.9886 110.863 48.9886C110.805 48.9313 110.462 48.9313 110.004 48.7023C109.546 48.4736 109.146 48.3016 108.459 48.3589C105.597 48.7023 105.139 49.6754 102.621 49.1027C100.102 48.53 99.4727 48.0726 97.0117 48.1869"></path>
<path stroke-linejoin="round" stroke-miterlimit="10" stroke-width="1.586" stroke="#010101" d="M97.4695 46.5273C98.9577 47.5004 102.678 48.4162 103.708 48.5879C104.738 48.8167 106.398 47.5004 107.2 47.1571C108.058 46.7564 109.547 46.5273 111.264 48.0728C111.435 48.2445 110.863 48.9886 110.863 48.9886C110.805 48.9313 110.462 48.9313 110.004 48.7023C109.546 48.4736 109.146 48.3016 108.459 48.3589C105.597 48.7023 105.139 49.6754 102.621 49.1027C100.102 48.53 99.4727 48.0726 97.0117 48.1869"></path>
<path fill="#8AC640" d="M96.9546 46.699C98.8435 47.5004 102.507 48.3588 103.537 48.5879C104.567 48.8169 106.227 47.7864 107.028 47.2714C108.459 46.3556 110.291 47.0997 111.149 48.0728C111.721 48.7022 111.951 49.1029 111.951 49.2746C111.951 49.5034 111.264 49.2746 111.264 49.2746C110.863 49.1029 110.405 49.0459 110.062 48.8166C109.604 48.5879 109.146 48.2445 108.46 48.3015C105.598 48.6452 105.025 49.618 102.564 49.0456C100.103 48.4732 99.4735 47.9581 96.8408 48.1295"></path>
<path fill="#010101" d="M88.0834 100.158C87.969 100.043 88.1977 99.9288 88.0834 99.9288C87.3396 99.9288 86.3091 99.3564 85.7364 98.555C83.2754 95.0065 79.6694 92.6598 73.1445 92.8315C63.357 93.0603 59.4648 89.054 58.721 81.3844C58.3203 77.2062 57.1755 73.1424 54.8289 70.8528L53.4551 71.7115C56.0878 74.0008 56.9465 77.7213 57.5189 82.8153C58.4347 90.4849 64.6161 94.0337 71.828 94.148C79.326 94.2624 82.016 95.8079 84.8204 99.5857C85.7362 100.788 86.7666 101.188 87.5677 101.36L88.0834 100.158Z"></path>
<path fill="#010101" d="M114.641 63.3547C114.813 64.2132 115.27 65.8731 116.186 66.6742C116.587 67.0749 116.644 67.1893 116.301 67.1893C115.957 67.1893 113.439 67.0749 113.439 67.0749L112.752 65.8731L114.641 63.3547Z" opacity="0.4"></path>
</g>
<defs>
<clipPath id="clip0_962_221">
<rect transform="translate(37 30)" fill="white" height="100" width="86.27"></rect>
</clipPath>
</defs>
</svg>
