<svg width="32" height="32" viewBox="0 0 32 32" fill="none" xmlns="http://www.w3.org/2000/svg">
<path d="M2.18182 28.0057H7.27273V15.642L0 10.1875V25.8239C0 27.0311 0.978182 28.0057 2.18182 28.0057Z" fill="#4285F4"/>
<path d="M24.7271 28.0057H29.818C31.0252 28.0057 31.9998 27.0275 31.9998 25.8239V10.1875L24.7271 15.642" fill="#34A853"/>
<path d="M24.7271 6.18801V15.6426L31.9998 10.188V7.27892C31.9998 4.58073 28.9198 3.04255 26.7634 4.66073" fill="#FBBC04"/>
<path d="M7.27295 15.642V6.1875L16.0002 12.733L24.7275 6.1875V15.642L16.0002 22.1875" fill="#EA4335"/>
<path d="M0 7.27892V10.188L7.27273 15.6426V6.18801L5.23636 4.66073C3.07636 3.04255 0 4.58073 0 7.27892Z" fill="#C5221F"/>
</svg>
