<svg width="120" height="120" viewBox="0 0 120 120" fill="none" xmlns="http://www.w3.org/2000/svg">
<circle cx="60" cy="10" r="2" fill="#112969"/>
<circle cx="110" cy="60" r="2" fill="#112969"/>
<circle cx="10" cy="60" r="2" fill="#112969"/>
<circle cx="60" cy="110" r="2" fill="#112969"/>
<g clip-path="url(#clip0_391_748)">
<path d="M14.0327 38.7384C12.4214 37.8767 11.8785 36.3601 12.6713 34.8694C12.8335 34.5431 13.0629 34.2549 13.3444 34.0235C13.6259 33.7922 13.9532 33.6229 14.3047 33.5269C14.6562 33.4309 15.024 33.4103 15.3841 33.4664C15.7441 33.5225 16.0882 33.6541 16.3938 33.8526C16.5267 33.9177 16.6561 33.9896 16.7816 34.068L14.6876 38.0146C14.9045 38.1533 15.1477 38.2457 15.4019 38.286C15.6561 38.3264 15.9159 38.3138 16.1651 38.2491C16.4142 38.1844 16.6473 38.0689 16.8498 37.91C17.0522 37.751 17.2197 37.5519 17.3417 37.3252C17.5375 37.016 17.6197 36.6483 17.5741 36.2851C17.5285 35.9219 17.358 35.5859 17.0918 35.3347L17.514 34.5333C17.9579 34.9181 18.2516 35.4473 18.343 36.0276C18.4345 36.6079 18.3179 37.2018 18.0138 37.7044C17.1693 39.2985 15.5666 39.5484 14.0327 38.7384ZM14.0327 37.6527L15.6872 34.5333C15.4884 34.4203 15.2683 34.3498 15.0409 34.3261C14.8135 34.3024 14.5836 34.3261 14.3658 34.3958C14.148 34.4654 13.947 34.5794 13.7754 34.7307C13.6039 34.8819 13.4656 35.067 13.3692 35.2744C13.2522 35.4713 13.1756 35.6895 13.1439 35.9164C13.1122 36.1432 13.1261 36.3741 13.1846 36.5956C13.2432 36.817 13.3453 37.0245 13.485 37.206C13.6247 37.3875 13.7992 37.5394 13.9983 37.6527H14.0327Z" fill="#112969"/>
<path d="M20.3404 27.8203L21.0642 28.3459L17.7553 32.8785L17.0228 32.3528L20.3404 27.8203Z" fill="#112969"/>
<path d="M19.7889 24.6495L20.4266 24.0204L20.9091 24.5116C20.8613 24.1984 20.8895 23.8783 20.9915 23.5783C21.0935 23.2783 21.2663 23.0073 21.4951 22.7882C21.7071 22.5342 21.9992 22.36 22.3235 22.2942C22.6477 22.2285 22.9846 22.275 23.2788 22.4263C23.2017 22.0517 23.2213 21.6636 23.3359 21.2987C23.4505 20.9338 23.6562 20.6042 23.9337 20.341C24.7523 19.531 25.6571 19.6258 26.4757 20.4788L29.2762 23.3224L28.6386 23.9515L25.9932 21.263C25.4761 20.7373 24.9591 20.4013 24.3215 21.0562C24.1725 21.1888 24.0533 21.3513 23.9717 21.5333C23.8901 21.7152 23.8479 21.9124 23.8479 22.1118C23.8479 22.3112 23.8901 22.5083 23.9717 22.6902C24.0533 22.8722 24.1725 23.0348 24.3215 23.1673L26.8204 25.7007L26.1827 26.3298L23.5459 23.6499C23.0203 23.1242 22.5119 22.7882 21.8742 23.4345C21.7253 23.567 21.6061 23.7296 21.5245 23.9116C21.4429 24.0935 21.4007 24.2906 21.4007 24.49C21.4007 24.6894 21.4429 24.8866 21.5245 25.0685C21.6061 25.2504 21.7253 25.413 21.8742 25.5456L24.4421 28.0962L23.7958 28.7253L19.7889 24.6495Z" fill="#112969"/>
<path d="M29.3968 21.4356C28.6385 20.3671 29.2158 19.5227 30.2585 18.4369C30.9479 17.7217 31.2495 17.3771 30.922 16.9204C30.5946 16.4637 30.2413 16.3775 29.4744 16.9204C28.7074 17.4632 28.5179 17.9975 28.9573 18.7127L28.1904 19.2556C27.5959 18.3335 27.6734 17.2392 29.0521 16.2655C29.237 16.0749 29.4634 15.9297 29.7136 15.8411C29.9638 15.7524 30.2312 15.7228 30.4947 15.7545C30.7583 15.7862 31.011 15.8784 31.2331 16.0238C31.4552 16.1692 31.6407 16.364 31.7751 16.5929L33.3692 18.8247C33.6277 19.1952 33.8173 19.3331 33.9983 19.2039L34.1017 19.1177L34.4636 19.6261C34.3725 19.7415 34.2651 19.8431 34.1448 19.9277C33.7398 20.212 33.3865 20.2379 32.9298 19.695C32.9519 20.0845 32.8683 20.4728 32.6878 20.8187C32.5073 21.1645 32.2366 21.4551 31.9043 21.6597C31.7321 21.8246 31.5265 21.9507 31.3015 22.0296C31.0765 22.1084 30.8372 22.1383 30.5997 22.1171C30.3622 22.0958 30.132 22.0241 29.9245 21.9065C29.717 21.789 29.5371 21.6284 29.3968 21.4356ZM32.1198 18.6179L31.5941 17.8855C31.3929 18.3252 31.099 18.7161 30.7324 19.0315C29.9655 19.8932 29.7329 20.3499 30.112 20.8842C30.4912 21.4184 30.8617 21.4356 31.4649 21.0048C32.4041 20.3413 32.7574 19.4796 32.1198 18.6179Z" fill="#112969"/>
<path d="M32.6109 11.6113L33.1538 12.585L32.2232 13.1193L31.6803 12.1887L32.6109 11.6113ZM33.6277 13.5415L36.4972 18.4877L35.7217 18.9358L32.8522 13.9896L33.6277 13.5415Z" fill="#112969"/>
<path d="M35.4115 10L39.0134 17.1521L38.212 17.5571L34.6101 10.405L35.4115 10Z" fill="#112969"/>
<path d="M105.967 81.2717C107.587 82.1334 108.121 83.6413 107.329 85.1321C107.167 85.459 106.938 85.7481 106.657 85.9804C106.376 86.2126 106.049 86.3828 105.697 86.4796C105.346 86.5765 104.978 86.5978 104.617 86.5423C104.257 86.4868 103.912 86.3556 103.606 86.1575L103.218 85.9335L105.312 81.9869C105.096 81.8484 104.854 81.7561 104.6 81.7158C104.346 81.6755 104.087 81.6882 103.839 81.7529C103.59 81.8177 103.358 81.9331 103.156 82.092C102.955 82.2509 102.788 82.4498 102.667 82.6762C102.472 82.985 102.389 83.3518 102.433 83.7145C102.477 84.0772 102.645 84.4136 102.908 84.6668L102.486 85.4681C102.043 85.0849 101.749 84.5571 101.658 83.9783C101.566 83.3995 101.683 82.807 101.986 82.3057C102.831 80.7116 104.433 80.4531 105.967 81.2717ZM105.967 82.3488L104.321 85.4681C104.52 85.5814 104.739 85.6524 104.966 85.6767C105.193 85.701 105.423 85.678 105.641 85.6092C105.858 85.5404 106.06 85.4273 106.231 85.2769C106.403 85.1266 106.542 84.9423 106.639 84.7357C106.752 84.5394 106.825 84.3228 106.854 84.0983C106.883 83.8738 106.867 83.6459 106.808 83.4274C106.749 83.209 106.647 83.0043 106.509 82.8252C106.37 82.646 106.198 82.4959 106.002 82.3833L105.967 82.3488Z" fill="#112969"/>
<path d="M99.6683 92.1793L98.9445 91.6536L102.202 87.1211L102.925 87.6467L99.6683 92.1793Z" fill="#112969"/>
<path d="M100.211 95.3606L99.5734 95.9897L99.0909 95.5071C99.142 95.8277 99.1145 96.1559 99.011 96.4635C98.9074 96.7712 98.7308 97.0492 98.4963 97.2736C98.2877 97.5296 97.9969 97.7054 97.6733 97.7714C97.3498 97.8374 97.0134 97.7894 96.7212 97.6355C96.7896 97.9948 96.7679 98.3654 96.6581 98.7142C96.5484 99.0631 96.3539 99.3793 96.0922 99.6347C95.2736 100.445 94.3688 100.35 93.5502 99.4968L90.7496 96.6618L91.3873 96.0328L94.0069 98.7557C94.5239 99.2814 95.0409 99.6174 95.6785 98.9625C95.8273 98.8307 95.9464 98.6689 96.0279 98.4877C96.1095 98.3065 96.1516 98.11 96.1516 97.9113C96.1516 97.7125 96.1095 97.5161 96.0279 97.3349C95.9464 97.1536 95.8273 96.9918 95.6785 96.86L93.1796 94.2749L93.8173 93.6459L96.4627 96.3257C96.9797 96.86 97.4881 97.1874 98.1258 96.5412C98.2747 96.4086 98.3939 96.246 98.4755 96.0641C98.5572 95.8821 98.5994 95.685 98.5994 95.4856C98.5994 95.2862 98.5572 95.089 98.4755 94.9071C98.3939 94.7252 98.2747 94.5626 98.1258 94.43L95.6268 91.8966L96.2645 91.2676L100.211 95.3606Z" fill="#112969"/>
<path d="M90.6031 98.5648C91.3614 99.6333 90.7841 100.478 89.7415 101.564C89.0521 102.279 88.7505 102.632 89.0779 103.089C89.4054 103.545 89.7673 103.623 90.5342 103.089C91.3011 102.554 91.4821 102.012 91.0512 101.305L91.8095 100.754C92.4041 101.684 92.3265 102.77 90.9478 103.744C90.0861 104.364 89.0349 104.605 88.2249 103.416L86.6307 101.184C86.3722 100.814 86.1826 100.676 86.0017 100.805L85.8983 100.891L85.5364 100.383C85.632 100.272 85.7388 100.171 85.8552 100.081C86.2602 99.7971 86.6135 99.7712 87.0702 100.314C87.0505 99.9251 87.1362 99.5381 87.3182 99.1938C87.5002 98.8495 87.7717 98.5608 88.1042 98.358C88.2739 98.1911 88.4776 98.0627 88.7014 97.9816C88.9252 97.9006 89.1639 97.8688 89.4011 97.8884C89.6383 97.9081 89.8685 97.9787 90.076 98.0954C90.2834 98.2121 90.4632 98.3722 90.6031 98.5648ZM87.8888 101.417L88.4144 102.201C88.6132 101.76 88.9076 101.369 89.2761 101.055C90.043 100.193 90.2757 99.7281 89.8879 99.1939C89.5002 98.6596 89.1383 98.6424 88.5351 99.0732C87.6303 99.6161 87.2511 100.521 87.8888 101.417Z" fill="#112969"/>
<path d="M86.3723 106.459L83.5115 101.513L84.2784 101.064L87.1478 106.011L86.3723 106.459ZM87.3891 108.389L86.8462 107.458L87.7769 106.924L88.3197 107.855L87.3891 108.389Z" fill="#112969"/>
<path d="M84.5886 110L80.9867 102.848L81.7881 102.443L85.39 109.595L84.5886 110Z" fill="#112969"/>
<path d="M38.7377 105.968C37.876 107.588 36.3594 108.122 34.8686 107.338C34.5411 107.176 34.2517 106.946 34.0195 106.664C33.7873 106.381 33.6176 106.053 33.5215 105.701C33.4254 105.348 33.4052 104.979 33.4621 104.618C33.5191 104.257 33.6519 103.912 33.8518 103.607C33.9294 103.46 34.0156 103.296 34.0673 103.219L38.0138 105.313C38.1524 105.097 38.2446 104.854 38.2849 104.6C38.3252 104.347 38.3125 104.088 38.2478 103.839C38.183 103.591 38.0676 103.358 37.9087 103.157C37.7498 102.955 37.5509 102.788 37.3245 102.667C37.0152 102.471 36.6475 102.389 36.2844 102.435C35.9212 102.48 35.5852 102.651 35.334 102.917L34.5326 102.486C34.9173 102.042 35.4465 101.749 36.0268 101.657C36.6071 101.566 37.201 101.682 37.7036 101.987C39.2978 102.831 39.5477 104.434 38.7377 105.968ZM37.6519 105.968L34.5326 104.322C34.4196 104.521 34.349 104.741 34.3253 104.968C34.3016 105.196 34.3254 105.425 34.395 105.643C34.4646 105.861 34.5787 106.062 34.7299 106.234C34.8811 106.405 35.0663 106.543 35.2736 106.64C35.4711 106.756 35.6898 106.833 35.917 106.864C36.1442 106.895 36.3753 106.88 36.5968 106.821C36.8183 106.761 37.0257 106.658 37.2069 106.518C37.388 106.377 37.5394 106.202 37.6519 106.002V105.968Z" fill="#112969"/>
<path d="M27.8199 99.6778L28.3456 98.9453L32.8781 102.203L32.3525 102.926L27.8199 99.6778Z" fill="#112969"/>
<path d="M24.6488 100.212L24.0198 99.5742L24.511 99.0917C24.1972 99.1356 23.8774 99.1046 23.5779 99.0013C23.2784 98.898 23.0075 98.7252 22.7876 98.4971C22.5343 98.2865 22.3604 97.9959 22.2946 97.6732C22.2288 97.3505 22.2751 97.0149 22.4257 96.722C22.0511 96.8017 21.6623 96.7833 21.297 96.6685C20.9316 96.5538 20.6021 96.3466 20.3404 96.0671C19.5304 95.2485 19.6251 94.3437 20.4782 93.5251L23.3218 90.7246L23.9509 91.3709L21.2624 94.0077C20.7367 94.5247 20.4007 95.0417 21.0556 95.6794C21.1881 95.8283 21.3507 95.9475 21.5327 96.0291C21.7146 96.1108 21.9117 96.153 22.1111 96.153C22.3105 96.153 22.5077 96.1108 22.6896 96.0291C22.8715 95.9475 23.0341 95.8283 23.1667 95.6794L25.7001 93.1804L26.3292 93.8181L23.6493 96.4635C23.1236 96.9805 22.7876 97.4976 23.4339 98.1352C23.5664 98.2842 23.729 98.4034 23.911 98.485C24.0929 98.5666 24.29 98.6088 24.4894 98.6088C24.6888 98.6088 24.886 98.5666 25.0679 98.485C25.2498 98.4034 25.4124 98.2842 25.545 98.1352L28.0956 95.5674L28.7247 96.205L24.6488 100.212Z" fill="#112969"/>
<path d="M21.4348 90.6031C20.3663 91.3614 19.5218 90.784 18.4361 89.7414C17.7553 89.052 17.3762 88.7504 16.8936 89.0779C16.4111 89.4053 16.3508 89.7672 16.8936 90.5341C17.4365 91.3011 17.9707 91.482 18.686 91.0512L19.2288 91.8181C18.3068 92.404 17.2124 92.3265 16.2387 90.9564C16.0482 90.7715 15.903 90.5451 15.8143 90.2949C15.7257 90.0447 15.6961 89.7773 15.7278 89.5138C15.7595 89.2502 15.8516 88.9975 15.9971 88.7754C16.1425 88.5533 16.3373 88.3678 16.5662 88.2334L18.798 86.6393C19.1685 86.3808 19.3064 86.1912 19.1771 86.0102C19.1525 85.9725 19.1236 85.9378 19.0909 85.9068L19.5993 85.5449C19.7129 85.6413 19.8142 85.7513 19.9009 85.8724C20.1853 86.2688 20.2112 86.622 19.6683 87.0787C20.0581 87.0547 20.447 87.1375 20.7933 87.3182C21.1395 87.4989 21.4298 87.7706 21.633 88.1042C21.799 88.2739 21.9269 88.4773 22.0078 88.7006C22.0887 88.9239 22.1208 89.1619 22.1021 89.3987C22.0833 89.6354 22.014 89.8654 21.8989 90.0732C21.7838 90.2809 21.6255 90.4616 21.4348 90.6031ZM18.617 87.8887L17.8501 88.4144C18.2898 88.6156 18.6808 88.9095 18.9962 89.2761C19.8579 90.043 20.3146 90.2756 20.8488 89.8879C21.3831 89.5001 21.4003 89.1382 20.9694 88.535C20.3404 87.6302 19.4787 87.2511 18.617 87.8887Z" fill="#112969"/>
<path d="M11.6113 87.3894L12.585 86.8465L13.1193 87.7771L12.1887 88.32L11.6113 87.3894ZM13.5415 86.3726L18.4877 83.5117L18.9358 84.2872L13.9896 87.1481L13.5415 86.3726Z" fill="#112969"/>
<path d="M10 84.5882L17.1521 80.9863L17.5571 81.7877L10.405 85.3896L10 84.5882Z" fill="#112969"/>
<path d="M81.2709 14.0322C82.1326 12.4209 83.6406 11.878 85.1313 12.6708C85.4583 12.8322 85.7474 13.0611 85.9797 13.3422C86.2119 13.6234 86.382 13.9505 86.4789 14.3021C86.5757 14.6536 86.5971 15.0217 86.5416 15.3822C86.4861 15.7426 86.3549 16.0872 86.1568 16.3933C86.0894 16.5266 86.0146 16.6561 85.9327 16.7811L81.9861 14.6871C81.8475 14.904 81.7551 15.1472 81.7147 15.4014C81.6744 15.6556 81.6869 15.9154 81.7517 16.1646C81.8164 16.4137 81.9318 16.6468 82.0908 16.8493C82.2498 17.0517 82.4488 17.2192 82.6755 17.3412C82.9852 17.5354 83.3526 17.6166 83.7153 17.5711C84.0781 17.5255 84.4139 17.356 84.666 17.0913L85.4674 17.5135C85.0841 17.9568 84.5564 18.2501 83.9776 18.3416C83.3988 18.433 82.8063 18.3168 82.305 18.0133C80.7108 17.1688 80.4523 15.5661 81.2709 14.0322ZM82.3481 14.0322L85.4674 15.6867C85.5807 15.4884 85.6517 15.2689 85.676 15.0418C85.7003 14.8148 85.6773 14.5852 85.6085 14.3674C85.5397 14.1497 85.4265 13.9486 85.2762 13.7767C85.1259 13.6048 84.9416 13.4659 84.735 13.3687C84.3395 13.1406 83.8697 13.0787 83.4286 13.1967C82.9876 13.3146 82.6114 13.6027 82.3825 13.9978L82.3481 14.0322Z" fill="#112969"/>
<path d="M92.1801 20.3402L91.6545 21.064L87.1219 17.7551L87.6476 17.0312L92.1801 20.3402Z" fill="#112969"/>
<path d="M95.3597 19.7891L95.9887 20.4267L95.5062 20.9093C95.8261 20.8541 96.1547 20.8787 96.4628 20.9809C96.771 21.0831 97.0491 21.2598 97.2727 21.4952C97.5293 21.7053 97.7055 21.9976 97.7714 22.3226C97.8374 22.6476 97.789 22.9855 97.6346 23.2789C97.9938 23.2129 98.3638 23.2357 98.7122 23.3453C99.0607 23.4549 99.377 23.6481 99.6337 23.908C100.444 24.7266 100.349 25.6314 99.4958 26.45L96.6609 29.2505L96.0318 28.6128L98.7548 25.9933C99.2804 25.4763 99.6165 24.9592 98.9616 24.3216C98.8298 24.1729 98.668 24.0538 98.4867 23.9722C98.3055 23.8907 98.109 23.8485 97.9103 23.8485C97.7116 23.8485 97.5151 23.8907 97.3339 23.9722C97.1527 24.0538 96.9908 24.1729 96.8591 24.3216L94.274 26.8205L93.6449 26.1829L96.3248 23.5374C96.859 23.0204 97.1865 22.512 96.5402 21.8744C96.4076 21.7254 96.245 21.6062 96.0631 21.5246C95.8812 21.443 95.684 21.4008 95.4846 21.4008C95.2852 21.4008 95.0881 21.443 94.9062 21.5246C94.7242 21.6062 94.5616 21.7254 94.4291 21.8744L91.8957 24.3733L91.2925 23.7873L95.3597 19.7891Z" fill="#112969"/>
<path d="M98.5652 29.3964C99.6337 28.6381 100.478 29.2155 101.564 30.2581C102.279 30.9475 102.632 31.2491 103.089 30.9216C103.546 30.5942 103.623 30.2409 103.089 29.4654C102.555 28.6898 102.012 28.5175 101.305 28.957L100.754 28.1901C101.685 27.5955 102.77 27.673 103.744 29.0518C104.364 29.9135 104.606 30.9647 103.417 31.7747L101.185 33.3689C100.814 33.6274 100.676 33.8169 100.806 33.9979L100.892 34.1013L100.383 34.4632C100.27 34.3698 100.169 34.2627 100.082 34.1444C99.7975 33.7394 99.7716 33.3861 100.314 32.9294C99.9262 32.9509 99.5394 32.867 99.195 32.6864C98.8507 32.5059 98.5616 32.2355 98.3584 31.904C98.1913 31.7335 98.0628 31.5291 97.9817 31.3046C97.9006 31.0801 97.8688 30.8408 97.8884 30.6029C97.9081 30.365 97.9787 30.1342 98.0954 29.926C98.2122 29.7178 98.3724 29.5372 98.5652 29.3964ZM101.417 32.1194L102.158 31.5851C101.716 31.3879 101.325 31.0933 101.012 30.7235C100.151 29.9565 99.6854 29.7153 99.1512 30.103C98.6169 30.4908 98.5997 30.8527 99.0305 31.4559C99.6165 32.4038 100.521 32.7571 101.417 32.1194Z" fill="#112969"/>
<path d="M106.458 33.6271L101.512 36.4966L101.064 35.721L106.01 32.8516L106.458 33.6271ZM108.389 32.6103L107.458 33.1532L106.924 32.2226L107.854 31.6797L108.389 32.6103Z" fill="#112969"/>
<path d="M110 35.4108L102.848 39.0126L102.443 38.2113L109.595 34.6094L110 35.4108Z" fill="#112969"/>
</g>
<defs>
<clipPath id="clip0_391_748">
<rect width="100" height="100" fill="white" transform="translate(10 10)"/>
</clipPath>
</defs>
</svg>
