<svg width="32" height="32" viewBox="0 0 32 32" fill="none" xmlns="http://www.w3.org/2000/svg">
<g clip-path="url(#clip0_569_644)">
<path d="M16.0053 0.00304772C9.3254 0.00304772 7.37102 0.00990516 6.99157 0.0411447C5.89711 0.0849796 4.82358 0.355047 3.83866 0.834325C3.14995 1.1691 2.52716 1.62516 2.0001 2.18068C0.980474 3.24543 0.330511 4.61 0.146293 6.07267C0.0380972 6.82166 0.00685747 6.97405 0 10.7967C0 12.0714 0 13.7485 0 15.9977C0 22.6738 0.00761945 24.6267 0.039621 25.0054C0.0849315 26.0765 0.343992 27.1278 0.801562 28.0973C1.22876 28.9726 1.84051 29.7449 2.59472 30.3611C3.34893 30.9774 4.22769 31.4229 5.17053 31.667C5.93232 31.8486 6.71086 31.9507 7.49369 31.9718C7.8899 31.9893 11.929 32.0015 15.9703 32.0015C20.0116 32.0015 24.053 31.997 24.4393 31.9771C25.2508 31.9618 26.0581 31.8559 26.8462 31.6617C27.791 31.4194 28.6714 30.9738 29.4261 30.3559C30.1807 29.738 30.7913 28.9628 31.2152 28.0844C31.6657 27.134 31.9222 26.1033 31.9695 25.0526C31.9909 24.7768 32 20.3804 32 15.9901C32 11.5998 31.9901 7.21101 31.9688 6.93519C31.9227 5.8728 31.6609 4.8309 31.1992 3.87295C30.8614 3.16835 30.3964 2.53214 29.8277 1.99629C28.7599 0.979621 27.3947 0.331571 25.9319 0.147054C25.1844 0.0388589 25.0359 0.00685747 21.2079 0L16.0053 0.00304772Z" fill="url(#paint0_radial_569_644)"/>
<path d="M16.0053 0.00304772C9.3254 0.00304772 7.37102 0.00990516 6.99157 0.0411447C5.89711 0.0849796 4.82358 0.355047 3.83866 0.834325C3.14995 1.1691 2.52716 1.62516 2.0001 2.18068C0.980474 3.24543 0.330511 4.61 0.146293 6.07267C0.0380972 6.82166 0.00685747 6.97405 0 10.7967C0 12.0714 0 13.7485 0 15.9977C0 22.6738 0.00761945 24.6267 0.039621 25.0054C0.0849315 26.0765 0.343992 27.1278 0.801562 28.0973C1.22876 28.9726 1.84051 29.7449 2.59472 30.3611C3.34893 30.9774 4.22769 31.4229 5.17053 31.667C5.93232 31.8486 6.71086 31.9507 7.49369 31.9718C7.8899 31.9893 11.929 32.0015 15.9703 32.0015C20.0116 32.0015 24.053 31.997 24.4393 31.9771C25.2508 31.9618 26.0581 31.8559 26.8462 31.6617C27.791 31.4194 28.6714 30.9738 29.4261 30.3559C30.1807 29.738 30.7913 28.9628 31.2152 28.0844C31.6657 27.134 31.9222 26.1033 31.9695 25.0526C31.9909 24.7768 32 20.3804 32 15.9901C32 11.5998 31.9901 7.21101 31.9688 6.93519C31.9227 5.8728 31.6609 4.8309 31.1992 3.87295C30.8614 3.16835 30.3964 2.53214 29.8277 1.99629C28.7599 0.979621 27.3947 0.331571 25.9319 0.147054C25.1844 0.0388589 25.0359 0.00685747 21.2079 0L16.0053 0.00304772Z" fill="url(#paint1_radial_569_644)"/>
<path d="M16.0002 4.1875C12.7917 4.1875 12.3894 4.20122 11.1291 4.25836C10.1492 4.27797 9.1797 4.46373 8.26193 4.80772C7.47689 5.1111 6.76393 5.57519 6.16875 6.17024C5.57357 6.76529 5.10932 7.47815 4.80577 8.26312C4.46113 9.18124 4.27536 10.1513 4.25641 11.1318C4.20002 12.3921 4.18555 12.7951 4.18555 16.0083C4.18555 19.2214 4.20002 19.6191 4.25717 20.8793C4.27689 21.8594 4.46238 22.8291 4.80577 23.7473C5.10901 24.5319 5.57271 25.2446 6.16719 25.8397C6.76167 26.4349 7.47383 26.8993 8.25812 27.2035C9.1763 27.5468 10.146 27.7323 11.1261 27.7521C12.3863 27.8092 12.7886 27.8237 15.9964 27.8237C19.2042 27.8237 19.6065 27.8092 20.8667 27.7521C21.847 27.7322 22.817 27.5468 23.7354 27.2035C24.52 26.8991 25.2324 26.4345 25.8273 25.8393C26.4221 25.244 26.8863 24.5313 27.1901 23.7465C27.5322 22.8277 27.7178 21.858 27.7394 20.8778C27.7958 19.6176 27.8103 19.216 27.8103 16.0067C27.8103 12.7974 27.7958 12.3944 27.7394 11.1341C27.7179 10.1541 27.5322 9.18472 27.1901 8.26617C26.8867 7.48113 26.4226 6.76817 25.8276 6.17299C25.2325 5.57781 24.5196 5.11356 23.7347 4.81001C22.816 4.46627 21.8458 4.28053 20.8652 4.26065C19.6049 4.2035 19.2034 4.18979 15.9941 4.18979L16.0002 4.1875ZM14.9403 6.32094H16.0002C19.1546 6.32094 19.5288 6.3316 20.7738 6.38875C21.5229 6.39772 22.2649 6.53535 22.9674 6.79562C23.4768 6.99239 23.9393 7.29354 24.3254 7.67973C24.7114 8.06591 25.0124 8.52858 25.209 9.03802C25.4693 9.74052 25.6069 10.4825 25.6159 11.2316C25.6723 12.4774 25.6852 12.8515 25.6852 16.0052C25.6852 19.1589 25.6723 19.533 25.6159 20.7788C25.6069 21.5279 25.4693 22.2699 25.209 22.9724C25.0123 23.4816 24.7112 23.9441 24.3252 24.3302C23.9391 24.7162 23.4766 25.0173 22.9674 25.214C22.265 25.4747 21.5229 25.6123 20.7738 25.6209C19.5288 25.6773 19.1546 25.6895 16.0002 25.6895C12.8458 25.6895 12.4717 25.6773 11.2266 25.6209C10.4775 25.6117 9.73547 25.4738 9.03302 25.2133C8.52358 25.0167 8.06091 24.7157 7.67472 24.3296C7.28854 23.9436 6.98739 23.481 6.79062 22.9716C6.5296 22.2693 6.39195 21.5272 6.38375 20.778C6.3266 19.5322 6.31517 19.1581 6.31517 16.0022C6.31517 12.8462 6.3266 12.4744 6.38375 11.2286C6.39242 10.4795 6.53006 9.73739 6.79062 9.03497C6.98701 8.5252 7.288 8.06222 7.67422 7.67588C8.06044 7.28953 8.52331 6.98837 9.03302 6.79182C9.73524 6.53043 10.4774 6.39252 11.2266 6.38418C12.3162 6.33465 12.7391 6.32017 14.9403 6.31789V6.32094ZM22.306 8.28293C22.0255 8.28293 21.7514 8.36612 21.5182 8.52196C21.285 8.6778 21.1032 8.8993 20.9959 9.15845C20.8886 9.41759 20.8606 9.70274 20.9154 9.97782C20.9701 10.2529 21.1053 10.5056 21.3036 10.7038C21.502 10.9021 21.7548 11.0371 22.0299 11.0917C22.305 11.1464 22.5901 11.1182 22.8492 11.0107C23.1083 10.9033 23.3297 10.7214 23.4854 10.4881C23.6411 10.2548 23.7242 9.98062 23.724 9.70014C23.724 9.51397 23.6873 9.32962 23.616 9.15763C23.5448 8.98563 23.4403 8.82937 23.3086 8.69776C23.177 8.56615 23.0206 8.46177 22.8486 8.39059C22.6766 8.31942 22.4922 8.28283 22.306 8.28293ZM16.0002 9.93558C14.7998 9.93468 13.6261 10.2898 12.6276 10.9561C11.6291 11.6223 10.8506 12.5698 10.3907 13.6785C9.93072 14.7873 9.80994 16.0076 10.0436 17.185C10.2773 18.3624 10.855 19.4441 11.7035 20.2931C12.552 21.1422 13.6333 21.7205 14.8106 21.9549C15.9879 22.1894 17.2082 22.0694 18.3173 21.6101C19.4263 21.1508 20.3742 20.373 21.0411 19.3749C21.708 18.3768 22.0639 17.2033 22.0637 16.0029C22.0635 14.3945 21.4248 12.8519 20.2878 11.7142C19.1508 10.5765 17.6086 9.9368 16.0002 9.93558ZM16.0002 12.069C16.7795 12.0692 17.5413 12.3005 18.1891 12.7336C18.8369 13.1668 19.3417 13.7824 19.6395 14.5025C19.9374 15.2227 20.015 16.015 19.8625 16.7792C19.71 17.5434 19.3342 18.2452 18.7827 18.7959C18.2313 19.3465 17.5289 19.7212 16.7644 19.8725C15.9999 20.0238 15.2077 19.945 14.4881 19.646C13.7684 19.347 13.1536 18.8413 12.7214 18.1928C12.2893 17.5443 12.0592 16.7822 12.0602 16.0029C12.0603 15.4856 12.1623 14.9735 12.3604 14.4956C12.5584 14.0178 12.8487 13.5836 13.2146 13.218C13.5804 12.8523 14.0148 12.5623 14.4927 12.3645C14.9707 12.1667 15.4829 12.065 16.0002 12.0652V12.069Z" fill="#6d6d6d"/>
</g>
<defs>
<radialGradient id="paint0_radial_569_644" cx="0" cy="0" r="1" gradientUnits="userSpaceOnUse" gradientTransform="translate(8.57188 34.5262) rotate(-90) scale(31.7235 29.4998)">
<stop stop-color="#000000"/>
<stop offset="0.1" stop-color="#000000"/>
<stop offset="0.5" stop-color="#000000"/>
<stop offset="1" stop-color="#000000"/>
</radialGradient>
<radialGradient id="paint1_radial_569_644" cx="0" cy="0" r="1" gradientUnits="userSpaceOnUse" gradientTransform="translate(-5.41191 2.16892) rotate(78.6774) scale(14.178 58.4405)">
<stop stop-color="#000000"/>
<stop offset="0.128" stop-color="#000000"/>
<stop offset="1" stop-color="#000000" stop-opacity="0"/>
</radialGradient>
<clipPath id="clip0_569_644">
<rect width="32" height="32" fill="#6d6d6d"/>
</clipPath>
</defs>
</svg>
