<svg width="120" height="120" viewBox="0 0 120 120" fill="#ff0000" xmlns="http://www.w3.org/2000/svg">
<circle cx="60" cy="10" r="2" fill="#fffce1"/>
<circle cx="110" cy="60" r="2" fill="#fffce1"/>
<circle cx="10" cy="60" r="2" fill="#fffce1"/>
<circle cx="60" cy="110" r="2" fill="#fffce1"/>
<g clip-path="url(#clip0_391_925)">
<path d="M7.28929 44.625L8.31032 44.9143L8.02103 45.9353L7 45.646L7.28929 44.625ZM9.33986 45.2887L14.7683 46.8202L14.5301 47.6711L9.10162 46.1395L9.33986 45.2887Z" fill="#fffce1"/>
<path d="M9.98657 43.0688L10.3099 42.2179L10.9395 42.4647C10.7649 42.157 10.6654 41.8125 10.6491 41.4591C10.6329 41.1057 10.7003 40.7535 10.8459 40.4311C10.9093 40.1855 11.0267 39.9571 11.1897 39.7627C11.3527 39.5683 11.5571 39.4128 11.7879 39.3076C12.0188 39.2024 12.2702 39.1501 12.5238 39.1546C12.7775 39.159 13.0269 39.2202 13.2539 39.3335L16.9296 40.7544L16.6063 41.6053L13.1433 40.2524C12.9932 40.1688 12.8264 40.1199 12.6549 40.1093C12.4835 40.0987 12.3119 40.1266 12.1527 40.1911C11.9935 40.2556 11.8508 40.355 11.7351 40.4819C11.6194 40.6089 11.5336 40.7601 11.4841 40.9246C11.389 41.1129 11.3343 41.319 11.3234 41.5297C11.3126 41.7403 11.3459 41.9509 11.4212 42.148C11.4965 42.345 11.6121 42.5242 11.7607 42.674C11.9093 42.8237 12.0875 42.9408 12.2839 43.0177L15.5597 44.2855L15.2449 45.1363L9.98657 43.0688Z" fill="#fffce1"/>
<path d="M18.3419 34.6876C19.2779 35.1896 19.4736 36.2447 18.7844 37.5125C18.0101 38.9419 16.8189 39.2908 15.7894 38.7632L16.2318 37.9124C16.8529 38.2017 17.5506 38.1251 18.1037 37.1041C18.6568 36.083 18.3079 35.6916 17.925 35.4874C17.2443 35.113 16.7934 35.7852 16.3254 36.3383C15.6702 37.1041 14.8704 37.989 13.8409 37.4274C12.99 36.9764 12.8114 36.0064 13.4325 34.8748C14.1302 33.59 15.1853 33.3092 16.0872 33.7006L15.6447 34.5515C15.2193 34.4153 14.6237 34.3473 14.1132 35.2662C13.7388 35.9639 13.8579 36.4234 14.2578 36.6361C14.8279 36.9509 15.2193 36.3468 15.7638 35.7427C16.4445 34.9514 17.2103 34.092 18.3419 34.6876Z" fill="#fffce1"/>
<path d="M16.0361 30.8238L14.479 29.7942L14.981 29.0625L16.5381 30.1176L17.1592 29.2071L17.7974 29.6411L17.2103 30.5515L20.0181 32.4659C20.5116 32.8063 20.7158 32.7722 20.9966 32.3638C21.0859 32.2337 21.1656 32.0972 21.2348 31.9554L21.856 32.3808C21.7742 32.5617 21.6775 32.7353 21.5667 32.8999C21.0987 33.5806 20.5371 33.8954 19.4821 33.1721L16.7083 31.2832L16.2403 31.9724L15.6021 31.5385L16.0361 30.8238Z" fill="#fffce1"/>
<path d="M21.3029 30.5769C20.3159 29.726 20.6648 28.7901 21.405 27.4968C21.89 26.6459 22.0942 26.2375 21.6688 25.8802C21.2433 25.5228 20.8775 25.5313 20.2734 26.2375C19.6693 26.9437 19.6267 27.4968 20.2138 28.0754L19.6182 28.7816C18.8269 28.0413 18.6312 26.9778 19.7118 25.71C19.8425 25.4836 20.0237 25.2904 20.2411 25.1454C20.4586 25.0003 20.7065 24.9073 20.9657 24.8736C21.225 24.8399 21.4885 24.8663 21.7358 24.9508C21.9831 25.0354 22.2077 25.1758 22.392 25.3611L24.4596 27.1139C24.7999 27.4032 25.0127 27.4968 25.1573 27.3266C25.1851 27.2914 25.2107 27.2544 25.2339 27.216L25.7018 27.6159C25.6385 27.7457 25.5615 27.8683 25.4721 27.9818C25.1573 28.3562 24.817 28.4583 24.2469 28.0498C24.3596 28.4177 24.3717 28.809 24.282 29.1831C24.1922 29.5572 24.0038 29.9004 23.7364 30.177C23.6127 30.3749 23.4483 30.5441 23.2541 30.6735C23.0599 30.8028 22.8403 30.8893 22.6101 30.9272C22.3798 30.965 22.1441 30.9533 21.9187 30.8929C21.6933 30.8325 21.4834 30.7248 21.3029 30.5769ZM23.2173 27.1735L22.5281 26.5949C22.4491 27.058 22.2722 27.4989 22.0091 27.8882C21.4816 28.8752 21.371 29.3942 21.873 29.8196C22.375 30.2451 22.7238 30.1685 23.1918 29.6069C23.881 28.8156 24.0171 27.8882 23.2173 27.1905V27.1735Z" fill="#fffce1"/>
<path d="M28.8075 23.1659C28.8565 23.514 28.814 23.8689 28.6842 24.1956C28.5544 24.5224 28.3418 24.8097 28.0672 25.0293C27.0377 25.9652 25.5998 26.0588 24.349 24.6804C23.0982 23.302 23.3365 21.8811 24.349 20.9452C24.5953 20.7005 24.8978 20.5199 25.2301 20.419C25.5623 20.3182 25.9141 20.3002 26.2549 20.3666L25.7869 19.8476L26.4421 19.252L29.9732 23.1149C31.0538 24.3061 30.824 25.5738 29.6669 26.6374C28.5097 27.701 27.4121 27.6925 26.6463 26.9692L27.3355 26.3481C27.8035 26.697 28.3991 26.7395 29.1478 26.0588C29.8966 25.3781 30.1093 24.5783 29.3776 23.7785L28.8075 23.1659ZM25.0297 24.0168C25.7699 24.8676 26.7314 25.1229 27.5823 24.3486C28.4331 23.5743 28.4331 22.7149 27.5142 21.7365C26.5953 20.758 25.7019 20.7069 24.9191 21.4046C24.1363 22.1023 24.2894 23.1659 25.0297 24.0168Z" fill="#fffce1"/>
<path d="M29.0628 17.2784L29.718 18.1888C29.5885 17.8513 29.5698 17.4814 29.6646 17.1326C29.7595 16.7838 29.9629 16.4743 30.2455 16.2488C30.386 16.1472 30.5339 16.0562 30.6879 15.9766L31.207 16.6913C31.0936 16.7435 30.9854 16.8062 30.8836 16.8785C30.6894 17.0211 30.5265 17.202 30.4049 17.4102C30.2834 17.6183 30.2059 17.8491 30.1772 18.0884C30.1485 18.3276 30.1692 18.5703 30.238 18.8012C30.3068 19.0322 30.4223 19.2465 30.5773 19.431L32.3301 21.8815L31.6069 22.392L28.3311 17.7974L29.0628 17.2784Z" fill="#fffce1"/>
<path d="M33.8616 19.0062C33.2235 17.8831 33.8616 17.1088 35.0103 16.1473C35.759 15.5177 36.0908 15.2029 35.8186 14.7264C35.5463 14.2499 35.1974 14.1223 34.3891 14.5818C33.5808 15.0412 33.3426 15.5432 33.6999 16.2835L32.8916 16.7429C32.4066 15.773 32.5938 14.7094 34.0403 13.8926C34.9507 13.3735 35.9973 13.2885 36.6779 14.4882L38.0223 16.845C38.235 17.2279 38.4052 17.3896 38.6009 17.279L38.703 17.2109L39.0093 17.747C38.907 17.8459 38.7926 17.9317 38.6689 18.0022C38.2435 18.249 37.8862 18.2319 37.4948 17.6534C37.4778 18.038 37.3564 18.4108 37.1435 18.7316C36.9306 19.0524 36.6344 19.3091 36.2865 19.4742C36.1019 19.6176 35.8887 19.72 35.6614 19.7744C35.434 19.8288 35.1976 19.834 34.968 19.7897C34.7385 19.7454 34.521 19.6526 34.3302 19.5175C34.1394 19.3824 33.9796 19.2081 33.8616 19.0062ZM36.8226 16.4536L36.3801 15.6709C36.1476 16.081 35.8281 16.4353 35.4442 16.7089C34.5933 17.4577 34.3296 17.9086 34.6444 18.4702C34.9592 19.0317 35.3336 19.0913 35.9632 18.7339C36.8907 18.2404 37.3586 17.4236 36.8226 16.4877V16.4536Z" fill="#fffce1"/>
<path d="M38.0903 11.8577L38.9412 11.5514L39.1709 12.181C39.2488 11.8685 39.4042 11.5807 39.6229 11.3442C39.8415 11.1077 40.1162 10.9302 40.4217 10.8281C40.7182 10.6868 41.0544 10.652 41.3736 10.7295C41.6929 10.807 41.9757 10.992 42.1745 11.2536C42.2564 10.8907 42.429 10.5545 42.6759 10.2763C42.9229 9.99805 43.2363 9.78689 43.5869 9.66245C44.659 9.26255 45.4162 9.705 45.8246 10.8111L47.1945 14.5038L46.3437 14.8187L45.0504 11.3301C44.7951 10.6409 44.4548 10.156 43.6294 10.4793C43.4403 10.5385 43.2659 10.6374 43.1179 10.7693C42.97 10.9012 42.8518 11.0631 42.7713 11.2442C42.6908 11.4253 42.6498 11.6215 42.6511 11.8197C42.6523 12.0179 42.6958 12.2136 42.7786 12.3937L44.0038 15.695L43.1529 16.0014L41.8852 12.4958C41.6299 11.8151 41.2981 11.3216 40.4642 11.645C40.2751 11.7042 40.1007 11.803 39.9527 11.9349C39.8048 12.0668 39.6866 12.2287 39.6061 12.4099C39.5256 12.591 39.4846 12.7872 39.4859 12.9854C39.4871 13.1836 39.5306 13.3793 39.6134 13.5594L40.8386 16.8607L39.9877 17.167L38.0903 11.8577Z" fill="#fffce1"/>
<path d="M110.66 74.702L105.232 73.179L105.47 72.3281L110.898 73.8512L110.66 74.702ZM112.711 75.3657L111.656 75.0679L111.945 74.0469L112.966 74.3276L112.711 75.3657Z" fill="#fffce1"/>
<path d="M110.005 76.9498L109.682 77.8007L109.052 77.5625C109.229 77.8692 109.33 78.2134 109.348 78.5669C109.365 78.9204 109.299 79.2731 109.154 79.596C109.09 79.842 108.972 80.0706 108.808 80.2649C108.644 80.4592 108.438 80.6143 108.206 80.7188C107.975 80.8232 107.722 80.8744 107.468 80.8686C107.214 80.8628 106.964 80.8001 106.738 80.6851L103.07 79.2557L103.385 78.4048L106.848 79.7492C106.999 79.8411 107.169 79.897 107.345 79.9125C107.521 79.928 107.699 79.9026 107.863 79.8384C108.028 79.7742 108.176 79.6729 108.295 79.5423C108.414 79.4117 108.501 79.2554 108.55 79.0855C108.644 78.897 108.697 78.691 108.708 78.4807C108.718 78.2704 108.684 78.0603 108.609 77.8636C108.534 77.6669 108.419 77.4879 108.271 77.3379C108.123 77.188 107.946 77.0703 107.75 76.9924L104.466 75.7161L104.789 74.8652L110.005 76.9498Z" fill="#fffce1"/>
<path d="M101.658 85.2792C100.722 84.7687 100.526 83.7221 101.216 82.4543C101.99 81.0249 103.173 80.676 104.211 81.2036L103.768 82.0544C103.147 81.7651 102.449 81.8417 101.896 82.9053C101.343 83.9689 101.692 84.3177 102.075 84.5219C102.756 84.8963 103.207 84.2156 103.675 83.6711C104.33 82.9053 105.13 82.0204 106.159 82.582C107.01 83.0329 107.189 84.0029 106.568 85.1345C105.87 86.4193 104.806 86.7001 103.913 86.3087L104.355 85.4579C104.781 85.5855 105.376 85.6621 105.878 84.7431C106.261 84.0369 106.142 83.586 105.742 83.3647C105.172 83.0584 104.781 83.6625 104.236 84.2667C103.555 85.0494 102.756 85.9088 101.658 85.2792Z" fill="#fffce1"/>
<path d="M103.998 89.15L105.546 90.2051L105.053 90.9369L103.496 89.8818L102.875 90.7922L102.237 90.3583L102.858 89.4393L100.05 87.5334C99.5564 87.1931 99.3437 87.2271 99.0714 87.6355C98.9809 87.7619 98.9012 87.8956 98.8332 88.0354L98.212 87.6185C98.2859 87.4355 98.3801 87.2614 98.4928 87.0995C98.9608 86.4103 99.5224 86.104 100.586 86.8272L103.317 88.6821L103.785 87.9929L104.432 88.4268L103.998 89.15Z" fill="#fffce1"/>
<path d="M98.697 89.4235C99.684 90.2744 99.3266 91.2103 98.5949 92.5036C98.1099 93.3545 97.9057 93.7629 98.3311 94.1202C98.7566 94.4776 99.1224 94.4691 99.718 93.7629C100.314 93.0567 100.373 92.4951 99.7776 91.925L100.382 91.2188C101.173 91.9591 101.36 93.0226 100.288 94.2904C100.157 94.5177 99.9748 94.7115 99.7563 94.8567C99.5377 95.0019 99.2885 95.0947 99.0282 95.1276C98.7678 95.1606 98.5034 95.1329 98.2555 95.0467C98.0077 94.9605 97.7831 94.8181 97.5994 94.6308L95.5318 92.878C95.2 92.5972 94.9873 92.5036 94.8426 92.6738C94.8137 92.7051 94.788 92.7393 94.766 92.7759L94.2896 92.376C94.3529 92.2469 94.433 92.1267 94.5278 92.0186C94.8426 91.6442 95.183 91.5336 95.7445 91.942C95.6269 91.5761 95.6122 91.1848 95.7023 90.811C95.7924 90.4373 95.9836 90.0956 96.255 89.8234C96.3786 89.6242 96.5434 89.4538 96.7383 89.3235C96.9332 89.1933 97.1538 89.1063 97.3851 89.0685C97.6165 89.0306 97.8532 89.0427 98.0795 89.1039C98.3058 89.1651 98.5163 89.2741 98.697 89.4235ZM96.7826 92.8269L97.4718 93.4055C97.5436 92.9378 97.7211 92.4926 97.9908 92.1037C98.5183 91.1252 98.6289 90.6062 98.1269 90.1808C97.6249 89.7553 97.2761 89.8319 96.7996 90.3935C96.1189 91.1848 95.9572 92.0867 96.7826 92.8099V92.8269Z" fill="#fffce1"/>
<path d="M91.184 96.877C91.1357 96.5302 91.1785 96.1768 91.3083 95.8515C91.4381 95.5263 91.6504 95.2404 91.9242 95.0221C92.9538 94.0862 94.3917 93.9926 95.6425 95.371C96.8932 96.7494 96.655 98.1703 95.6425 99.1063C95.397 99.3493 95.0957 99.5284 94.7648 99.6278C94.434 99.7272 94.0838 99.7439 93.7451 99.6763L94.213 100.195L93.5579 100.791L90.0183 96.8855C88.9462 95.6943 89.1674 94.4265 90.3331 93.363C91.4988 92.2994 92.5794 92.3079 93.3537 93.0311L92.6645 93.6523C92.1965 93.3034 91.5924 93.2609 90.8521 93.9416C90.1119 94.6222 89.8907 95.4221 90.6139 96.2219L91.184 96.877ZM94.9703 95.9751C94.23 95.1243 93.2686 94.8775 92.4177 95.6518C91.5669 96.4261 91.5669 97.2769 92.4858 98.2639C93.4047 99.2509 94.2981 99.2935 95.0384 98.5872C95.7786 97.881 95.7105 96.8004 94.9703 95.9751Z" fill="#fffce1"/>
<path d="M90.9287 102.721L90.2821 101.811C90.4106 102.149 90.428 102.52 90.3316 102.868C90.2352 103.217 90.0301 103.526 89.746 103.751C89.6067 103.854 89.4587 103.945 89.3036 104.023L88.7931 103.308C88.9027 103.254 89.0079 103.191 89.1079 103.121C89.3028 102.979 89.4664 102.799 89.5887 102.591C89.711 102.383 89.7893 102.152 89.8189 101.913C89.8484 101.674 89.8284 101.431 89.7603 101.2C89.6921 100.968 89.5772 100.753 89.4227 100.568L87.6699 98.1179L88.3932 97.6074L91.669 102.202L90.9287 102.721Z" fill="#fffce1"/>
<path d="M86.1298 100.994C86.7679 102.117 86.1298 102.891 84.9726 103.853C84.2239 104.482 83.892 104.797 84.1728 105.274C84.4536 105.75 84.794 105.878 85.6023 105.418C86.4106 104.959 86.6403 104.457 86.283 103.717L87.1338 103.257C87.6273 104.227 87.4401 105.291 85.9937 106.108C85.0832 106.627 84.0367 106.712 83.356 105.512L81.9776 103.147C81.7564 102.755 81.5947 102.602 81.399 102.713C81.3582 102.728 81.3207 102.751 81.2884 102.781L81.0247 102.296C81.1297 102.194 81.2469 102.105 81.3735 102.032C81.7989 101.794 82.1478 101.811 82.5477 102.389C82.5628 102.004 82.6834 101.631 82.8965 101.31C83.1096 100.988 83.4069 100.732 83.7559 100.569C83.9366 100.432 84.1436 100.334 84.3639 100.281C84.5841 100.229 84.8129 100.222 85.0359 100.262C85.2589 100.302 85.4711 100.388 85.6594 100.514C85.8476 100.64 86.0078 100.803 86.1298 100.994ZM83.1688 103.547L83.6113 104.329C83.8438 103.919 84.1633 103.565 84.5472 103.291C85.3981 102.543 85.6618 102.092 85.3385 101.521C85.0152 100.951 84.6578 100.909 84.0282 101.266C83.1093 101.76 82.6413 102.568 83.1773 103.513L83.1688 103.547Z" fill="#fffce1"/>
<path d="M81.8756 108.132L81.0248 108.447L80.795 107.809C80.7165 108.12 80.5619 108.406 80.345 108.642C80.1281 108.879 79.8559 109.057 79.5528 109.162C79.2599 109.307 78.9262 109.347 78.6072 109.276C78.2883 109.204 78.0034 109.026 77.8 108.77C77.7142 109.121 77.5437 109.446 77.3034 109.716C77.0632 109.986 76.7604 110.193 76.4216 110.319C75.358 110.719 74.6008 110.319 74.1924 109.17L72.814 105.478L73.6648 105.163L74.9581 108.651C75.2134 109.332 75.5452 109.825 76.3791 109.502C76.5674 109.442 76.7409 109.342 76.8881 109.21C77.0353 109.078 77.1529 108.916 77.2332 108.735C77.3136 108.555 77.3548 108.359 77.3542 108.161C77.3537 107.963 77.3113 107.768 77.2299 107.588L76.0047 104.286L76.8556 103.98L78.1489 107.469C78.4041 108.149 78.7445 108.643 79.5698 108.319C79.7587 108.261 79.9329 108.163 80.0808 108.032C80.2288 107.901 80.347 107.74 80.4276 107.559C80.5081 107.379 80.5492 107.183 80.548 106.986C80.5468 106.788 80.5034 106.593 80.4207 106.413L79.1103 103.146L79.9612 102.84L81.8756 108.132Z" fill="#fffce1"/>
<path d="M44.625 112.711L44.9143 111.69L45.9353 111.98L45.646 113.001L44.625 112.711ZM45.2972 110.661L46.8202 105.232L47.6711 105.471L46.1395 110.899L45.2972 110.661Z" fill="#fffce1"/>
<path d="M43.0423 110.006L42.1915 109.682L42.4297 109.061C42.1214 109.234 41.777 109.332 41.424 109.348C41.071 109.365 40.7191 109.298 40.3962 109.155C40.1512 109.088 39.9243 108.967 39.732 108.801C39.5397 108.636 39.387 108.429 39.285 108.196C39.183 107.964 39.1344 107.711 39.1426 107.458C39.1508 107.204 39.2158 106.955 39.3326 106.73L40.762 103.062L41.6129 103.386L40.26 106.849C40.1682 107 40.1126 107.171 40.0976 107.348C40.0827 107.524 40.1087 107.702 40.1738 107.866C40.2389 108.031 40.3413 108.179 40.4728 108.297C40.6044 108.416 40.7616 108.503 40.9322 108.551C41.1205 108.646 41.3266 108.7 41.5373 108.711C41.7479 108.722 41.9585 108.689 42.1556 108.613C42.3527 108.538 42.5318 108.422 42.6816 108.274C42.8313 108.125 42.9484 107.947 43.0253 107.751L44.3016 104.475L45.1525 104.79L43.0423 110.006Z" fill="#fffce1"/>
<path d="M34.687 101.659C35.189 100.723 36.2441 100.527 37.5119 101.216C38.9413 101.991 39.2902 103.182 38.7626 104.211L37.9118 103.769C38.2011 103.148 38.1245 102.45 37.1034 101.897C36.0824 101.344 35.691 101.693 35.4868 102.076C35.1124 102.756 35.7846 103.207 36.3377 103.675C37.1034 104.33 37.9883 105.13 37.4268 106.16C36.9758 107.011 36.0058 107.189 34.8742 106.568C33.5894 105.87 33.3086 104.815 33.7 103.913L34.5509 104.356C34.4232 104.781 34.3552 105.377 35.2741 105.879C35.9718 106.262 36.4313 106.143 36.644 105.743C36.9588 105.173 36.3547 104.781 35.7506 104.237C34.9508 103.556 34.0914 102.756 34.687 101.659Z" fill="#fffce1"/>
<path d="M30.824 103.999L29.7605 105.547L29.0372 105.054L30.0923 103.497L29.1819 102.876L29.6158 102.237L30.5262 102.859L32.4407 100.051C32.781 99.5573 32.747 99.353 32.3386 99.0723C32.2093 98.9816 32.0727 98.9019 31.9302 98.834L32.3556 98.2129C32.5381 98.2913 32.712 98.3882 32.8746 98.5022C33.5553 98.9617 33.8701 99.5317 33.1469 100.587L31.258 103.361L31.9472 103.82L31.5132 104.467L30.824 103.999Z" fill="#fffce1"/>
<path d="M30.5688 98.6965C29.718 99.6835 28.7905 99.3261 27.4972 98.5944C26.6464 98.1094 26.238 97.9052 25.8806 98.3306C25.5232 98.7561 25.5317 99.1219 26.238 99.7175C26.9442 100.313 27.4972 100.373 28.0758 99.7771L28.782 100.381C28.0418 101.173 26.9782 101.36 25.7104 100.288C24.9106 99.6069 24.4682 98.654 25.3616 97.5989L27.1143 95.5313C27.4036 95.1995 27.4972 94.9868 27.3271 94.8421L27.2164 94.7655L27.6163 94.2891C27.748 94.3524 27.871 94.4325 27.9822 94.5273C28.3566 94.8421 28.4587 95.1825 28.0503 95.744C28.4177 95.6276 28.81 95.6136 29.1848 95.7035C29.5597 95.7935 29.9029 95.984 30.1774 96.2545C30.3771 96.3779 30.5479 96.5427 30.6781 96.738C30.8083 96.9332 30.8949 97.1542 30.9321 97.3859C30.9692 97.6177 30.956 97.8547 30.8933 98.0808C30.8306 98.307 30.72 98.517 30.5688 98.6965ZM27.1654 96.7821L26.5868 97.4713C27.051 97.5463 27.4928 97.7236 27.8801 97.9903C28.8671 98.5178 29.3861 98.6284 29.8116 98.1264C30.237 97.6244 30.1519 97.2756 29.5988 96.8076C28.8161 96.1184 27.8886 95.9567 27.1909 96.7821H27.1654Z" fill="#fffce1"/>
<path d="M23.1663 91.1836C23.5144 91.1346 23.8693 91.1771 24.196 91.3069C24.5227 91.4367 24.81 91.6493 25.0296 91.9239C25.9656 92.9534 26.0592 94.3913 24.6808 95.6421C23.3024 96.8929 21.8815 96.6546 20.9455 95.6421C20.7016 95.3971 20.5213 95.096 20.4205 94.7653C20.3196 94.4346 20.3012 94.0842 20.3669 93.7447L19.8479 94.2127L19.2523 93.5575L23.1578 90.0179C24.349 88.9459 25.6167 89.1671 26.6803 90.3328C27.7439 91.4984 27.7354 92.5875 27.0121 93.3533L26.391 92.6641C26.7399 92.1961 26.7824 91.6005 26.1017 90.8518C25.421 90.103 24.6212 89.8903 23.8214 90.622L23.1663 91.1836ZM24.0171 94.9699C24.868 94.2297 25.1232 93.2682 24.349 92.4174C23.5747 91.5665 22.7153 91.5665 21.7368 92.4854C20.7583 93.4043 20.6988 94.2977 21.405 95.038C22.1112 95.7782 23.1663 95.7102 24.0171 94.9699Z" fill="#fffce1"/>
<path d="M17.2783 90.9287L18.1888 90.2821C17.8513 90.4116 17.4813 90.4302 17.1326 90.3354C16.7838 90.2405 16.4742 90.0371 16.2488 89.7545C16.1448 89.6139 16.0509 89.4661 15.968 89.3121L16.6912 88.7931C16.7435 88.9037 16.8062 89.0091 16.8784 89.1079C17.0204 89.3028 17.2009 89.4664 17.4087 89.5887C17.6165 89.711 17.8472 89.7893 18.0864 89.8189C18.3257 89.8484 18.5686 89.8284 18.7998 89.7603C19.0311 89.6921 19.2459 89.5772 19.431 89.4227L21.8815 87.6699L22.392 88.3932L17.7974 91.669L17.2783 90.9287Z" fill="#fffce1"/>
<path d="M19.0056 86.1294C17.874 86.7676 17.1082 86.1294 16.1467 84.9723C15.5171 84.2235 15.2023 83.9002 14.7258 84.1725C14.2493 84.4447 14.1217 84.7936 14.5811 85.6019C15.0406 86.4102 15.5426 86.6485 16.2829 86.2911L16.7423 87.142C15.7723 87.627 14.7088 87.4398 13.8919 85.9933C13.3729 85.0829 13.2878 84.0363 14.4876 83.3556L16.8444 82.0113C17.2273 81.7986 17.389 81.6284 17.2784 81.4327L17.2103 81.288L17.7548 80.9902C17.8513 81.0947 17.9368 81.2088 18.0101 81.3306C18.2569 81.756 18.2398 82.1134 17.6613 82.5048C18.0454 82.5235 18.4174 82.6457 18.7379 82.8584C19.0584 83.071 19.3155 83.3663 19.4821 83.713C19.6237 83.898 19.7243 84.111 19.7772 84.3378C19.8302 84.5647 19.8342 84.8002 19.7892 85.0287C19.7441 85.2573 19.6509 85.4736 19.5158 85.6634C19.3807 85.8532 19.2068 86.012 19.0056 86.1294ZM16.453 83.1684L15.6702 83.6109C16.0804 83.8435 16.4347 84.1629 16.7083 84.5468C17.457 85.3977 17.908 85.6615 18.4696 85.3381C19.0311 85.0148 19.0907 84.6574 18.7248 84.0278C18.2398 83.1089 17.423 82.6409 16.4871 83.1769L16.453 83.1684Z" fill="#fffce1"/>
<path d="M11.8584 81.8754L11.5521 81.0246L12.1817 80.7948C11.873 80.7202 11.5877 80.5699 11.3515 80.3575C11.1153 80.145 10.9357 79.8772 10.8289 79.5781C10.6876 79.2815 10.6527 78.9454 10.7302 78.6261C10.8077 78.3069 10.9928 78.0241 11.2543 77.8253C10.893 77.7457 10.5577 77.576 10.2795 77.332C10.0013 77.0881 9.78931 76.7777 9.66319 76.4299C9.26328 75.3663 9.70573 74.6091 10.8118 74.2007L14.5046 72.8223L14.8194 73.6731L11.3309 74.9664C10.6417 75.2217 10.1567 75.5535 10.48 76.3874C10.5392 76.5765 10.6381 76.7509 10.77 76.8989C10.9019 77.0468 11.0638 77.165 11.2449 77.2455C11.426 77.326 11.6223 77.367 11.8205 77.3657C12.0187 77.3645 12.2143 77.321 12.3944 77.2382L15.6873 76.013L16.0021 76.8639L12.5136 78.1657C11.8329 78.4209 11.3394 78.7528 11.6627 79.5781C11.7219 79.7673 11.8208 79.9416 11.9527 80.0896C12.0846 80.2375 12.2465 80.3557 12.4276 80.4362C12.6087 80.5167 12.8049 80.5577 13.0032 80.5565C13.2014 80.5552 13.397 80.5117 13.5771 80.429L16.8785 79.2037L17.1848 80.0546L11.8584 81.8754Z" fill="#fffce1"/>
<path d="M74.7029 9.33986L73.1798 14.7683L72.329 14.5301L73.852 9.10162L74.7029 9.33986ZM75.3665 7.28929L75.0687 8.31032L74.0477 8.02103L74.3455 7L75.3665 7.28929Z" fill="#fffce1"/>
<path d="M76.9491 9.99414L77.8 10.309L77.5617 10.9386C77.8694 10.764 78.2139 10.6645 78.5673 10.6482C78.9207 10.6319 79.2729 10.6994 79.5953 10.845C79.8413 10.909 80.0699 11.0274 80.2642 11.1914C80.4585 11.3554 80.6136 11.5608 80.718 11.7926C80.8225 12.0244 80.8737 12.2767 80.8679 12.5308C80.8621 12.785 80.7993 13.0347 80.6844 13.2614L79.2549 16.9286L78.4041 16.6053L79.7484 13.1423C79.8322 12.9929 79.8814 12.8265 79.8926 12.6556C79.9037 12.4846 79.8765 12.3133 79.8129 12.1542C79.7492 11.9951 79.6508 11.8523 79.5248 11.7362C79.3988 11.6201 79.2485 11.5336 79.0848 11.4831C78.8965 11.388 78.6904 11.3333 78.4797 11.3225C78.269 11.3117 78.0584 11.345 77.8614 11.4203C77.6643 11.4956 77.4852 11.6112 77.3354 11.7598C77.1856 11.9083 77.0685 12.0865 76.9916 12.283L75.7154 15.5588L74.8645 15.2439L76.9491 9.99414Z" fill="#fffce1"/>
<path d="M85.2791 18.3416C84.7685 19.2775 83.722 19.4732 82.4542 18.784C81.0248 18.0097 80.6759 16.8185 81.2034 15.7805L82.0543 16.2314C81.765 16.8526 81.8416 17.5503 82.9052 18.1033C83.9687 18.6564 84.3176 18.3075 84.5218 17.9247C84.8877 17.244 84.2155 16.793 83.6709 16.325C82.9052 15.6699 82.0203 14.8701 82.5818 13.8405C83.0328 12.9897 84.0028 12.811 85.1344 13.4321C86.4192 14.1298 86.7 15.1849 86.3086 16.0868L85.4577 15.6443C85.5854 15.2189 85.6619 14.6233 84.743 14.1128C84.0368 13.7384 83.5858 13.8575 83.3646 14.2574C83.0583 14.8275 83.6624 15.2189 84.2155 15.755C85.0493 16.4442 85.9087 17.2099 85.2791 18.3416Z" fill="#fffce1"/>
<path d="M89.1504 16.0356L90.2055 14.4785L90.9372 14.9805L89.8822 16.5376L90.7926 17.1587L90.3586 17.7969L89.4397 17.2098L87.5338 20.0176C87.1934 20.5111 87.2275 20.7153 87.6359 20.9961C87.7642 21.0836 87.8978 21.1631 88.0358 21.2343L87.6189 21.8555C87.4371 21.7757 87.2633 21.6788 87.0998 21.5662C86.4106 21.0982 86.1043 20.5366 86.8276 19.4816L88.6824 16.6737L88.0018 16.2058L88.4357 15.5676L89.1504 16.0356Z" fill="#fffce1"/>
<path d="M89.4227 21.3033C90.2735 20.3163 91.2095 20.6651 92.5028 21.4054C93.3536 21.8904 93.762 22.0946 94.1194 21.6691C94.4768 21.2437 94.4682 20.8778 93.762 20.2737C93.0558 19.6696 92.4943 19.6271 91.9242 20.2142L91.218 19.6186C91.9582 18.8273 93.0218 18.6316 94.2896 19.7122C94.5153 19.8437 94.7078 20.0253 94.852 20.2432C94.9962 20.461 95.0883 20.7091 95.1212 20.9683C95.1542 21.2274 95.127 21.4907 95.0418 21.7377C94.9565 21.9846 94.8156 22.2086 94.6299 22.3924L92.8771 24.46C92.5964 24.8003 92.5028 25.013 92.6729 25.1577L92.775 25.2342L92.3751 25.7022C92.2465 25.6369 92.124 25.56 92.0093 25.4725C91.6434 25.1577 91.5328 24.8173 91.9412 24.2472C91.5748 24.3602 91.1846 24.3724 90.8119 24.2826C90.4391 24.1927 90.0973 24.0042 89.8226 23.7367C89.6247 23.6131 89.4554 23.4487 89.3261 23.2544C89.1967 23.0602 89.1102 22.8407 89.0724 22.6104C89.0346 22.3802 89.0462 22.1445 89.1066 21.9191C89.167 21.6937 89.2748 21.4838 89.4227 21.3033ZM92.8261 23.2092L93.4047 22.5285C92.9394 22.4477 92.4961 22.2709 92.1029 22.0095C91.1244 21.482 90.5968 21.3713 90.1799 21.8648C89.763 22.3583 89.8311 22.7157 90.3926 23.1922C91.1839 23.8814 92.0858 24.0175 92.8091 23.2092H92.8261Z" fill="#fffce1"/>
<path d="M96.8763 28.8082C96.5294 28.8565 96.176 28.8136 95.8508 28.6838C95.5255 28.554 95.2397 28.3418 95.0214 28.0679C94.0855 27.0384 93.9919 25.5919 95.3703 24.3497C96.7487 23.1074 98.1696 23.3372 99.1055 24.3497C99.3493 24.5964 99.5288 24.8993 99.6282 25.2316C99.7276 25.5639 99.7439 25.9155 99.6756 26.2556L100.195 25.7876L100.79 26.4428L96.8848 29.9739C95.6936 31.0544 94.4258 30.8247 93.3622 29.6675C92.2987 28.5104 92.3072 27.4128 93.0304 26.647L93.6515 27.3362C93.3027 27.8042 93.2601 28.3998 93.9408 29.1485C94.6215 29.8973 95.4213 30.11 96.2211 29.3783L96.8763 28.8082ZM95.9744 25.0304C95.1235 25.7706 94.8683 26.7321 95.6511 27.5829C96.4338 28.4338 97.2762 28.4338 98.2632 27.5149C99.2502 26.5959 99.2927 25.7025 98.5865 24.9198C97.8803 24.137 96.7997 24.2901 95.9744 25.0304Z" fill="#fffce1"/>
<path d="M102.722 29.0618L101.811 29.717C102.149 29.5875 102.519 29.5688 102.867 29.6636C103.216 29.7585 103.526 29.9619 103.751 30.2445C103.853 30.385 103.944 30.5329 104.023 30.687L103.309 31.206C103.256 31.0926 103.194 30.9844 103.121 30.8827C102.979 30.6884 102.798 30.5255 102.59 30.404C102.382 30.2825 102.151 30.205 101.912 30.1762C101.672 30.1475 101.43 30.1682 101.199 30.237C100.968 30.3059 100.753 30.4213 100.569 30.5763L98.1184 32.3291L97.6079 31.6059L102.203 28.3301L102.722 29.0618Z" fill="#fffce1"/>
<path d="M100.994 33.8622C102.118 33.2241 102.892 33.8622 103.853 35.0109C104.483 35.7596 104.798 36.0915 105.274 35.8192C105.751 35.5469 105.878 35.1981 105.419 34.3897C104.959 33.5814 104.457 33.3432 103.717 33.7005L103.258 32.8922C104.228 32.4072 105.291 32.5944 106.108 34.0409C106.627 34.9513 106.712 35.9979 105.512 36.6785L103.147 38.0229C102.756 38.2356 102.603 38.4058 102.705 38.593C102.725 38.633 102.751 38.6702 102.781 38.7036L102.245 39.0099C102.141 38.9065 102.053 38.7891 101.981 38.661C101.743 38.2441 101.76 37.8868 102.339 37.4954C101.954 37.4784 101.581 37.357 101.261 37.1441C100.94 36.9313 100.683 36.635 100.518 36.2872C100.375 36.102 100.273 35.8883 100.219 35.6606C100.165 35.4328 100.161 35.1962 100.206 34.9666C100.251 34.737 100.345 34.5196 100.481 34.3292C100.617 34.1387 100.792 33.9795 100.994 33.8622ZM103.547 36.8232L104.33 36.3807C103.918 36.1468 103.562 35.8277 103.283 35.4448C102.543 34.5939 102.092 34.3302 101.522 34.645C100.952 34.9598 100.909 35.3257 101.267 35.9638C101.76 36.8913 102.568 37.3592 103.513 36.8232H103.547Z" fill="#fffce1"/>
<path d="M108.133 38.0898L108.448 38.9407L107.81 39.1789C108.121 39.2574 108.407 39.4121 108.643 39.629C108.879 39.8458 109.058 40.1181 109.163 40.4212C109.308 40.7141 109.348 41.0478 109.277 41.3667C109.205 41.6857 109.027 41.9706 108.771 42.174C109.129 42.2612 109.459 42.436 109.732 42.6825C110.006 42.9291 110.213 43.2397 110.337 43.5864C110.737 44.6585 110.337 45.4157 109.188 45.8242L105.495 47.194L105.181 46.3432L108.669 45.0499C109.35 44.7946 109.843 44.4543 109.52 43.6289C109.461 43.4398 109.362 43.2654 109.23 43.1174C109.098 42.9695 108.936 42.8513 108.755 42.7708C108.574 42.6903 108.378 42.6493 108.179 42.6506C107.981 42.6518 107.786 42.6953 107.606 42.7781L104.304 44.0033L103.998 43.1525L107.486 41.8591C108.167 41.6039 108.661 41.2721 108.337 40.4382C108.278 40.2502 108.179 40.0768 108.048 39.9297C107.917 39.7825 107.756 39.6648 107.576 39.5844C107.395 39.504 107.2 39.4627 107.003 39.4632C106.806 39.4637 106.611 39.506 106.431 39.5874L103.147 40.8892L102.841 40.0383L108.133 38.0898Z" fill="#fffce1"/>
</g>
<defs>
<clipPath id="clip0_391_925">
<rect width="106" height="106" fill="#fffce1" transform="translate(7 7)"/>
</clipPath>
</defs>
</svg>
