<svg style="pointer-events: none;" width="120" height="120" viewBox="0 0 120 120" fill="none" xmlns="http://www.w3.org/2000/svg">
<circle cx="60" cy="10" r="2" fill="#112969"/>
<circle cx="110" cy="60" r="2" fill="#112969"/>
<circle cx="10" cy="60" r="2" fill="#112969"/>
<circle cx="60" cy="110" r="2" fill="#112969"/>
<g clip-path="url(#clip0_391_963)">
<path d="M8.33786 38.3203L15.7968 41.3957L15.4589 42.262L8 39.1866L8.33786 38.3203Z" fill="#112969"/>
<path d="M9.87113 35.2617L10.8414 35.7209L10.3736 36.6998L9.40332 36.2233L9.87113 35.2617ZM11.8116 36.3013L17.0095 38.7876L16.6196 39.6019L11.4218 37.1069L11.8116 36.3013Z" fill="#112969"/>
<path d="M12.8599 34.1802L13.3277 33.4091L13.9081 33.7643C13.7849 33.4261 13.7441 33.0634 13.7894 32.7063C13.8346 32.3492 13.9644 32.008 14.168 31.7112C14.2759 31.4782 14.4344 31.2721 14.6317 31.1079C14.8291 30.9436 15.0605 30.8253 15.3093 30.7614C15.558 30.6976 15.8178 30.6898 16.0699 30.7387C16.322 30.7876 16.5601 30.8919 16.7669 31.0441L20.2235 33.1233L19.7557 33.8943L16.5243 31.9104C16.3909 31.7984 16.2341 31.7176 16.0654 31.6739C15.8967 31.6302 15.7204 31.6248 15.5494 31.658C15.3783 31.6912 15.2169 31.7623 15.0768 31.8659C14.9367 31.9695 14.8216 32.1031 14.7397 32.257C14.6107 32.4284 14.5191 32.625 14.4708 32.8341C14.4226 33.0432 14.4187 33.2601 14.4595 33.4708C14.5004 33.6814 14.585 33.8812 14.7078 34.0571C14.8307 34.233 14.9892 34.3812 15.1729 34.492L18.231 36.3546L17.7632 37.1256L12.8599 34.1802Z" fill="#112969"/>
<path d="M14.8784 26.7557L15.4415 26.0453L19.2099 29.0601L18.9241 25.3956L19.5998 24.5293L19.8077 27.596L24.2259 27.9339L23.5935 28.7915L19.903 28.445L19.9463 29.6578L21.7309 31.0872L21.1678 31.7889L14.8784 26.7557Z" fill="#112969"/>
<path d="M22.4846 25.5868C22.184 25.3378 21.9398 25.0276 21.7685 24.6768C21.5972 24.326 21.5027 23.9427 21.4912 23.5525C21.4797 23.1622 21.5516 22.774 21.702 22.4138C21.8524 22.0535 22.0778 21.7294 22.3634 21.4632C22.6186 21.1995 22.9268 20.9929 23.2676 20.8569C23.6084 20.7209 23.9742 20.6587 24.3408 20.6742C24.7075 20.6898 25.0667 20.7828 25.3948 20.9471C25.7229 21.1115 26.0124 21.3435 26.2444 21.6278C26.357 21.7491 26.4956 21.8877 26.5476 21.957L23.3336 25.1017C23.4984 25.3007 23.7026 25.4633 23.9334 25.5795C24.1642 25.6956 24.4165 25.7627 24.6745 25.7766C24.9325 25.7904 25.1905 25.7507 25.4324 25.6599C25.6742 25.5691 25.8947 25.4292 26.0798 25.249C26.3627 25.0131 26.5546 24.686 26.6226 24.324C26.6906 23.962 26.6304 23.5876 26.4523 23.2651L27.1107 22.6241C27.4174 23.1284 27.5361 23.7249 27.4457 24.3082C27.3554 24.8915 27.0618 25.4242 26.6169 25.8121C25.3261 27.0595 23.7061 26.8343 22.4846 25.5868ZM22.7879 24.5386L25.3261 22.061C25.1711 21.8913 24.9824 21.7558 24.7721 21.6631C24.5618 21.5704 24.3345 21.5225 24.1046 21.5225C23.8748 21.5225 23.6475 21.5704 23.4372 21.6631C23.2269 21.7558 23.0382 21.8913 22.8831 22.061C22.7118 22.2159 22.5731 22.4035 22.4753 22.6128C22.3775 22.8221 22.3225 23.0489 22.3136 23.2797C22.3048 23.5106 22.3421 23.7409 22.4236 23.9571C22.505 24.1732 22.6289 24.371 22.7879 24.5386Z" fill="#112969"/>
<path d="M29.7789 16.4814L27.925 14.0645L28.6527 13.5273L33.452 19.99L32.7243 20.5271L32.3085 19.9553C32.3058 20.2976 32.22 20.6341 32.0586 20.9359C31.8971 21.2377 31.6648 21.4958 31.3815 21.6879C30.2294 22.5543 28.6267 22.3203 27.5005 20.8216C26.3743 19.3229 26.6342 17.7029 27.769 16.8453C28.0405 16.619 28.3661 16.4673 28.7139 16.405C29.0618 16.3427 29.4198 16.372 29.7529 16.4901L29.7789 16.4814ZM31.0523 18.2141C30.2467 17.1312 29.1811 16.8106 28.3235 17.4517C27.4658 18.0928 27.5958 19.3749 28.2628 20.2845C28.9299 21.1942 30.0474 21.7486 30.9917 21.0469C31.936 20.3452 31.858 19.2623 31.0523 18.1881V18.2141Z" fill="#112969"/>
<path d="M31.8061 11.7344L32.3605 12.6613L31.4336 13.1984L30.8792 12.3321L31.8061 11.7344ZM32.8543 13.6662L35.8084 18.5869L35.0288 19.0547L32.0833 14.1254L32.8543 13.6662Z" fill="#112969"/>
<path d="M34.8987 12.4619L35.7217 12.0807L36.0162 12.6958C36.1036 12.3461 36.2713 12.0216 36.5058 11.7479C36.7404 11.4742 37.0355 11.259 37.3677 11.1191C37.5859 10.982 37.832 10.8953 38.0879 10.8653C38.3439 10.8353 38.6034 10.8628 38.8474 10.9458C39.0914 11.0288 39.3138 11.1652 39.4984 11.345C39.6831 11.5249 39.8252 11.7436 39.9146 11.9854L41.6472 15.6065L40.8329 15.9964L39.1869 12.5918C39.1347 12.4206 39.0442 12.2636 38.9223 12.1326C38.8004 12.0016 38.6502 11.9001 38.4832 11.8358C38.3162 11.7715 38.1368 11.7461 37.9585 11.7615C37.7802 11.7769 37.6078 11.8328 37.4543 11.9247C37.2531 11.9982 37.0695 12.1128 36.915 12.2611C36.7606 12.4095 36.6387 12.5884 36.5572 12.7864C36.4757 12.9844 36.4364 13.1973 36.4417 13.4114C36.4469 13.6255 36.4968 13.8361 36.588 14.0299L38.1213 17.2699L37.307 17.651L34.8987 12.4619Z" fill="#112969"/>
<path d="M81.6359 8.33786L78.6039 15.7968L77.7375 15.4589L80.8303 8L81.6359 8.33786Z" fill="#112969"/>
<path d="M83.7065 11.8126L81.2115 17.0105L80.3972 16.6206L82.8922 11.4228L83.7065 11.8126ZM84.7374 9.8721L84.235 10.8424L83.2647 10.3746L83.7325 9.4043L84.7374 9.8721Z" fill="#112969"/>
<path d="M85.8202 12.8594L86.5912 13.3272L86.236 13.9076C86.5757 13.7843 86.9398 13.7436 87.2983 13.7888C87.6568 13.834 87.9994 13.9638 88.2978 14.1675C88.5301 14.2763 88.7353 14.4353 88.8987 14.6331C89.0621 14.8308 89.1795 15.0624 89.2425 15.311C89.3055 15.5597 89.3124 15.8192 89.2629 16.0709C89.2134 16.3226 89.1087 16.5601 88.9562 16.7664L86.8771 20.1883L86.1061 19.7205L88.0726 16.4892C88.1772 16.3547 88.2512 16.1989 88.2893 16.0328C88.3275 15.8667 88.3289 15.6943 88.2934 15.5276C88.2579 15.3609 88.1864 15.204 88.0839 15.0678C87.9814 14.9316 87.8504 14.8195 87.7001 14.7393C87.5286 14.6102 87.332 14.5186 87.1229 14.4703C86.9138 14.4221 86.6969 14.4182 86.4862 14.459C86.2756 14.4999 86.0758 14.5845 85.8999 14.7073C85.724 14.8302 85.5758 14.9887 85.465 15.1724L83.6024 18.2305L82.8401 17.7627L85.8202 12.8594Z" fill="#112969"/>
<path d="M93.2531 14.8789L93.9548 15.442L90.94 19.2104L94.6045 18.9246L95.4708 19.6003L92.4041 19.8082L92.0316 24.2263L91.1653 23.5593L91.5118 19.8688L90.3076 19.9468L88.8782 21.7314L88.1765 21.1683L93.2531 14.8789Z" fill="#112969"/>
<path d="M94.414 22.4837C95.7308 21.2016 97.3421 21.1496 98.5376 22.3624C98.8013 22.6177 99.0079 22.9258 99.1439 23.2667C99.2799 23.6075 99.3421 23.9733 99.3266 24.3399C99.311 24.7065 99.218 25.0657 99.0537 25.3938C98.8893 25.7219 98.6573 26.0115 98.373 26.2435C98.2517 26.3561 98.1131 26.4947 98.0438 26.5467L94.8991 23.3327C94.6999 23.4983 94.5371 23.7033 94.4209 23.9348C94.3046 24.1662 94.2375 24.4193 94.2237 24.6779C94.2098 24.9366 94.2496 25.1953 94.3405 25.4379C94.4314 25.6805 94.5714 25.9017 94.7518 26.0875C94.9889 26.369 95.3165 26.5592 95.6784 26.6256C96.0404 26.692 96.4142 26.6304 96.7357 26.4514L97.3768 27.1098C96.8724 27.4165 96.2759 27.5352 95.6926 27.4448C95.1093 27.3544 94.5767 27.0609 94.1887 26.616C92.898 25.3252 93.1665 23.7052 94.414 22.4837ZM95.4622 22.7869L97.9485 25.3252C98.1172 25.1687 98.2518 24.979 98.3439 24.7681C98.4359 24.5572 98.4835 24.3295 98.4835 24.0994C98.4835 23.8692 98.4359 23.6416 98.3439 23.4306C98.2518 23.2197 98.1172 23.0301 97.9485 22.8735C97.7934 22.7066 97.6068 22.572 97.3996 22.4773C97.1923 22.3826 96.9684 22.3297 96.7407 22.3216C96.5129 22.3136 96.2859 22.3505 96.0724 22.4304C95.859 22.5102 95.6634 22.6314 95.4969 22.7869H95.4622Z" fill="#112969"/>
<path d="M103.519 29.7783L105.97 27.959L106.508 28.6867L100.045 33.4861L99.5078 32.7584L100.08 32.3425C99.7371 32.336 99.4011 32.2477 99.0998 32.0849C98.7984 31.9222 98.5402 31.6897 98.3469 31.4069C97.4806 30.2547 97.7145 28.6521 99.2132 27.5259C100.712 26.3997 102.332 26.6596 103.19 27.7944C103.417 28.065 103.57 28.3907 103.632 28.7389C103.695 29.087 103.665 29.4455 103.545 29.7783H103.519ZM101.786 31.0517C102.869 30.2461 103.19 29.1805 102.549 28.3229C101.907 27.4652 100.625 27.5952 99.7157 28.2622C98.8061 28.9293 98.2516 30.0468 98.9534 30.9911C99.6551 31.9354 100.695 31.8574 101.812 31.0517H101.786Z" fill="#112969"/>
<path d="M106.343 32.8541L101.414 35.7995L100.946 35.0285L105.893 32.0831L106.343 32.8541ZM108.266 31.8059L107.339 32.3603L106.759 31.4333L107.686 30.8789L108.266 31.8059Z" fill="#112969"/>
<path d="M107.539 34.8984L107.928 35.7128L107.305 36.0073C107.654 36.0947 107.979 36.2624 108.252 36.4969C108.526 36.7315 108.741 37.0266 108.881 37.3587C109.018 37.577 109.105 37.8231 109.135 38.079C109.165 38.335 109.138 38.5945 109.055 38.8385C108.972 39.0825 108.835 39.3049 108.655 39.4895C108.476 39.6741 108.257 39.8163 108.015 39.9057L104.385 41.6383L104.004 40.824L107.409 39.1867C107.58 39.1345 107.737 39.044 107.868 38.9221C107.999 38.8001 108.1 38.65 108.165 38.483C108.229 38.316 108.254 38.1365 108.239 37.9583C108.223 37.78 108.168 37.6075 108.076 37.454C108.002 37.2529 107.888 37.0692 107.739 36.9148C107.591 36.7603 107.412 36.6385 107.214 36.557C107.016 36.4755 106.803 36.4361 106.589 36.4414C106.375 36.4467 106.164 36.4965 105.971 36.5877L102.731 38.1211L102.349 37.3068L107.539 34.8984Z" fill="#112969"/>
<path d="M38.3208 111.661L41.3789 104.211L42.2452 104.557L39.1871 111.999L38.3208 111.661Z" fill="#112969"/>
<path d="M35.2627 110.13L35.7305 109.159L36.7094 109.627L36.233 110.606L35.2627 110.13ZM36.3023 108.198L38.7886 103L39.6029 103.39L37.1079 108.588L36.3023 108.198Z" fill="#112969"/>
<path d="M34.1797 107.149L33.4087 106.681L33.7639 106.092C33.4234 106.21 33.0602 106.248 32.7025 106.203C32.3449 106.158 32.0025 106.031 31.7021 105.832C31.4698 105.723 31.2645 105.564 31.1012 105.366C30.9378 105.168 30.8204 104.937 30.7574 104.688C30.6944 104.44 30.6874 104.18 30.7369 103.928C30.7864 103.677 30.8912 103.439 31.0437 103.233L33.1228 99.7676L33.8938 100.235L31.9273 103.467C31.8165 103.602 31.7377 103.761 31.6965 103.932C31.6554 104.102 31.653 104.279 31.6896 104.45C31.7262 104.622 31.8008 104.783 31.9079 104.921C32.015 105.06 32.1519 105.173 32.3085 105.251C32.4799 105.38 32.6765 105.472 32.8856 105.52C33.0947 105.568 33.3116 105.572 33.5223 105.532C33.7329 105.491 33.9327 105.406 34.1086 105.283C34.2845 105.16 34.4327 105.002 34.5435 104.818L36.4061 101.76L37.1771 102.228L34.1797 107.149Z" fill="#112969"/>
<path d="M26.7468 105.121L26.0451 104.558L29.0598 100.798L25.3954 101.084L24.5291 100.408L27.5958 100.192L27.9336 95.7734L28.7999 96.4405L28.4534 100.131L29.6576 100.053L31.087 98.2684L31.7887 98.8315L26.7468 105.121Z" fill="#112969"/>
<path d="M25.5859 97.5154C24.2691 98.7976 22.6578 98.8496 21.4623 97.6367C21.2001 97.3816 20.9947 97.0739 20.8595 96.7339C20.7244 96.3939 20.6626 96.0293 20.6781 95.6637C20.6937 95.2982 20.7862 94.94 20.9497 94.6127C21.1132 94.2854 21.3439 93.9963 21.6269 93.7644C21.7482 93.6431 21.8868 93.5045 21.9561 93.4525L25.1008 96.6665C25.2997 96.5017 25.4624 96.2975 25.5785 96.0667C25.6947 95.8359 25.7618 95.5836 25.7756 95.3256C25.7895 95.0676 25.7497 94.8096 25.6589 94.5677C25.5681 94.3259 25.4282 94.1054 25.248 93.9203C25.0121 93.6374 24.6851 93.4455 24.3231 93.3775C23.961 93.3095 23.5866 93.3697 23.2642 93.5478L22.6231 92.8981C23.1255 92.5869 23.7222 92.4648 24.3064 92.5537C24.8906 92.6426 25.4241 92.9367 25.8111 93.3832C27.0586 94.6826 26.8334 96.294 25.5859 97.5154ZM24.5377 97.2296L22.0514 94.7C21.8829 94.8557 21.7484 95.0446 21.6564 95.2548C21.5645 95.465 21.517 95.692 21.517 95.9214C21.517 96.1509 21.5645 96.3779 21.6564 96.5881C21.7484 96.7983 21.8829 96.9872 22.0514 97.1429C22.207 97.315 22.3956 97.4541 22.606 97.552C22.8164 97.6498 23.0443 97.7044 23.2762 97.7125C23.5081 97.7205 23.7392 97.682 23.9559 97.599C24.1726 97.5161 24.3704 97.3904 24.5377 97.2296Z" fill="#112969"/>
<path d="M16.4812 90.2204L14.0642 92.0309L13.5271 91.3119L19.9897 86.5039L20.5269 87.2316L19.9551 87.6561C20.2969 87.6609 20.6326 87.7476 20.9341 87.9089C21.2355 88.0702 21.494 88.3014 21.6877 88.583C22.554 89.7439 22.3201 91.3379 20.8214 92.4728C19.3227 93.6076 17.7027 93.3391 16.8451 92.1955C16.6188 91.9241 16.467 91.5985 16.4047 91.2507C16.3425 90.9028 16.3718 90.5448 16.4899 90.2117L16.4812 90.2204ZM18.2138 88.9555C17.1309 89.7612 16.8104 90.8181 17.4515 91.6757C18.0925 92.5334 19.3747 92.4034 20.2843 91.7364C21.1939 91.0693 21.7483 90.0038 21.0466 89.0075C20.3449 88.0113 19.262 88.1412 18.1878 88.9555H18.2138Z" fill="#112969"/>
<path d="M11.7339 88.1934L12.6608 87.639L13.1979 88.5659L12.3316 89.1203L11.7339 88.1934ZM13.6657 87.1452L18.5864 84.2344L19.0542 85.0054L14.1249 87.9508L13.6657 87.1452Z" fill="#112969"/>
<path d="M12.4614 85.1012L12.0802 84.2869L12.6953 83.9923C12.3448 83.9068 12.0193 83.7399 11.7454 83.5051C11.4715 83.2703 11.2567 82.9742 11.1186 82.6409C10.9815 82.4226 10.8948 82.1766 10.8648 81.9206C10.8348 81.6646 10.8623 81.4051 10.9453 81.1611C11.0283 80.9171 11.1647 80.6947 11.3445 80.5101C11.5244 80.3255 11.7432 80.1833 11.9849 80.0939L15.6061 78.3613L15.9872 79.1757L12.5913 80.7697C12.4181 80.8188 12.2586 80.9076 12.1256 81.0291C11.9926 81.1505 11.8896 81.3012 11.8249 81.4693C11.7602 81.6374 11.7355 81.8182 11.7528 81.9975C11.77 82.1768 11.8287 82.3496 11.9243 82.5023C11.9959 82.7088 12.1109 82.8977 12.2615 83.0561C12.4121 83.2146 12.5949 83.339 12.7975 83.4211C13.0002 83.5031 13.218 83.5409 13.4365 83.5318C13.6549 83.5228 13.8689 83.4671 14.064 83.3686L17.304 81.8352L17.6852 82.6495L12.4614 85.1012Z" fill="#112969"/>
<path d="M111.662 81.6364L104.212 78.587L104.55 77.7207L112 80.7788L111.662 81.6364Z" fill="#112969"/>
<path d="M108.197 83.7058L102.999 81.2108L103.389 80.3965L108.587 82.8914L108.197 83.7058ZM110.129 84.7367L109.158 84.2342L109.626 83.264L110.597 83.7318L110.129 84.7367Z" fill="#112969"/>
<path d="M107.149 85.8294L106.681 86.5918L106.092 86.2366C106.215 86.5763 106.256 86.9404 106.211 87.2989C106.165 87.6574 106.036 88 105.832 88.2984C105.723 88.5307 105.564 88.7359 105.366 88.8993C105.169 89.0627 104.937 89.1801 104.688 89.2431C104.44 89.3061 104.18 89.313 103.929 89.2635C103.677 89.214 103.439 89.1093 103.233 88.9568L99.7678 86.8777L100.236 86.1067L103.467 88.0732C103.603 88.1839 103.762 88.2628 103.932 88.3039C104.102 88.3451 104.279 88.3474 104.451 88.3108C104.622 88.2742 104.783 88.1996 104.922 88.0925C105.06 87.9854 105.173 87.8485 105.252 87.692C105.381 87.5205 105.472 87.3239 105.52 87.1148C105.569 86.9057 105.573 86.6889 105.532 86.4782C105.491 86.2675 105.406 86.0678 105.283 85.8919C105.161 85.7159 105.002 85.5678 104.818 85.4569L101.76 83.603L102.228 82.832L107.149 85.8294Z" fill="#112969"/>
<path d="M105.122 93.2539L104.559 93.9556L100.79 90.9409L101.076 94.6054L100.409 95.4717L100.192 92.4049L95.7742 92.0758L96.4412 91.2095L100.132 91.556L100.054 90.3518L98.2691 88.9311L98.8322 88.2207L105.122 93.2539Z" fill="#112969"/>
<path d="M97.5153 94.4133C98.7974 95.73 98.8494 97.3414 97.6365 98.5369C97.3813 98.8005 97.0731 99.0072 96.7323 99.1432C96.3915 99.2791 96.0257 99.3414 95.6591 99.3259C95.2924 99.3103 94.9332 99.2173 94.6051 99.0529C94.277 98.8886 93.9875 98.6566 93.7555 98.3723C93.6429 98.251 93.5043 98.1124 93.4523 98.0431L96.6663 94.8984C96.5015 94.6994 96.2973 94.5368 96.0665 94.4206C95.8357 94.3045 95.5834 94.2374 95.3254 94.2235C95.0674 94.2097 94.8094 94.2494 94.5675 94.3402C94.3257 94.431 94.1052 94.5709 93.9201 94.7511C93.6372 94.987 93.4453 95.3141 93.3773 95.6761C93.3093 96.0381 93.3695 96.4125 93.5476 96.735L92.8892 97.376C92.5825 96.8717 92.4638 96.2752 92.5542 95.6919C92.6445 95.1086 92.9381 94.5759 93.383 94.188C94.6738 92.8972 96.2938 93.1658 97.5153 94.4133ZM97.2294 95.4961L94.6998 97.9824C94.8555 98.1509 95.0444 98.2854 95.2546 98.3773C95.4648 98.4693 95.6918 98.5168 95.9213 98.5168C96.1507 98.5168 96.3777 98.4693 96.5879 98.3773C96.7981 98.2854 96.987 98.1509 97.1427 97.9824C97.3149 97.8268 97.4539 97.6382 97.5518 97.4278C97.6496 97.2174 97.7042 96.9895 97.7123 96.7576C97.7203 96.5257 97.6818 96.2946 97.5988 96.0779C97.5159 95.8612 97.3902 95.6634 97.2294 95.4961Z" fill="#112969"/>
<path d="M90.221 103.528L92.0402 105.971L91.3125 106.508L86.5132 100.046L87.2409 99.5085L87.6654 100.08C87.6695 99.7383 87.7559 99.4023 87.9172 99.1008C88.0786 98.7992 88.3101 98.5409 88.5923 98.3477C89.7445 97.4814 91.3472 97.7153 92.4734 99.214C93.5996 100.713 93.3397 102.333 92.2048 103.19C91.9342 103.418 91.6086 103.571 91.2604 103.633C90.9122 103.696 90.5538 103.665 90.221 103.546V103.528ZM88.9475 101.796C89.7532 102.878 90.8187 103.199 91.6764 102.567C92.534 101.934 92.4041 100.635 91.737 99.7338C91.07 98.8328 89.9524 98.261 89.0081 98.9628C88.0639 99.6645 88.1418 100.695 88.9475 101.813V101.796Z" fill="#112969"/>
<path d="M87.1457 106.342L84.2349 101.413L85.0059 100.945L87.9513 105.875L87.1457 106.342ZM88.1939 108.274L87.6394 107.339L88.5664 106.758L89.1208 107.685L88.1939 108.274Z" fill="#112969"/>
<path d="M85.1012 107.538L84.2869 107.927L83.9923 107.304C83.9049 107.653 83.7373 107.978 83.5027 108.252C83.2681 108.525 82.9731 108.74 82.6409 108.88C82.4226 109.017 82.1766 109.104 81.9206 109.134C81.6646 109.164 81.4051 109.137 81.1611 109.054C80.9171 108.971 80.6947 108.834 80.5101 108.654C80.3255 108.475 80.1833 108.256 80.0939 108.014L78.3613 104.384L79.1757 104.003L80.7956 107.468C80.8488 107.639 80.94 107.795 81.0623 107.925C81.1847 108.055 81.335 108.155 81.5019 108.219C81.6687 108.282 81.8479 108.307 82.0257 108.291C82.2035 108.275 82.3753 108.219 82.5283 108.127C82.7294 108.053 82.9131 107.939 83.0675 107.79C83.222 107.642 83.3438 107.463 83.4253 107.265C83.5068 107.067 83.5462 106.854 83.5409 106.64C83.5356 106.426 83.4858 106.215 83.3946 106.022L81.8612 102.782L82.6755 102.4L85.1012 107.538Z" fill="#112969"/>
</g>
<defs>
<clipPath id="clip0_391_963">
<rect width="104" height="104" fill="#ff0000" transform="translate(8 8)"/>
</clipPath>
</defs>
</svg>
