<svg width="32" height="32" viewBox="0 0 32 32" fill="none" xmlns="http://www.w3.org/2000/svg">
<path d="M29.6324 0H2.36073C1.05865 0 0.000488281 1.03299 0.000488281 2.30729V29.6909C0.000488281 30.9652 1.05865 32 2.36073 32H29.6324C30.9371 32 31.9996 30.9652 31.9996 29.6909V2.30729C31.9996 1.03299 30.9371 0 29.6324 0Z" fill="#0A66C2"/>
<path d="M4.74196 11.9974H9.49282V27.2682H4.74196V11.9974ZM7.1187 4.40625C8.63693 4.40625 9.86953 5.63932 9.86953 7.15843C9.86953 8.67796 8.63693 9.91101 7.1187 9.91101C5.5944 9.91101 4.36523 8.67796 4.36523 7.15843C4.36523 5.63932 5.59439 4.40625 7.1187 4.40625Z" fill="white"/>
<path d="M12.4702 11.9961H17.0197V14.0838H17.0848C17.7176 12.8832 19.2662 11.6172 21.5753 11.6172C26.3808 11.6172 27.2689 14.7791 27.2689 18.8919V27.267H22.5232V19.8407C22.5232 18.0699 22.4928 15.7917 20.0571 15.7917C17.5875 15.7917 17.2107 17.7218 17.2107 19.714V27.267H12.4702V11.9961Z" fill="white"/>
</svg>
