<svg xmlns="http://www.w3.org/2000/svg" fill="none" viewBox="0 0 160 160" height="160" width="160">
<rect fill="#F6FDFE" rx="80" height="160" width="160"></rect>
<path fill="#00D8FF" d="M79.9996 99.4444C54.9162 99.4444 35.2773 90.8889 35.2773 80C35.2773 69.1111 54.9162 60.5555 79.9996 60.5555C105.083 60.5555 124.722 69.1111 124.722 80C124.722 90.8889 105.083 99.4444 79.9996 99.4444ZM79.9996 64.4444C55.4996 64.4444 39.1662 72.4167 39.1662 80C39.1662 87.5833 55.4996 95.5555 79.9996 95.5555C104.5 95.5555 120.833 87.5833 120.833 80C120.833 72.4167 104.5 64.4444 79.9996 64.4444Z"></path>
<path fill="#00D8FF" d="M62.6941 120.056C60.7496 120.056 59.1941 119.667 57.6385 118.694C48.1107 113.25 50.6385 92.0556 63.083 70.2778C68.9163 60.1667 76.1108 51.6111 83.1108 46.1667C90.6941 40.3334 97.4997 38.5834 102.166 41.3056C107.027 44.0278 108.777 50.8334 107.611 60.3611C106.444 69.3056 102.555 79.8056 96.7219 89.9167C90.8885 100.028 83.6941 108.583 76.6941 114.028C71.6385 117.917 66.7774 120.056 62.6941 120.056ZM97.3052 43.8334C94.1941 43.8334 90.1108 45.5834 85.6385 49.0834C79.0274 54.3334 72.2219 62.5 66.583 72.2222C54.333 93.4167 53.1663 111.694 59.583 115.389C62.8885 117.333 68.333 115.583 74.3608 110.917C80.9719 105.667 87.7774 97.5 93.4163 87.7778C99.0552 78.0556 102.75 68.1389 103.916 59.7778C104.889 52 103.722 46.5556 100.416 44.6111C99.4441 44.2222 98.4719 43.8334 97.3052 43.8334Z"></path>
<path fill="#00D8FF" d="M97.5 120.056C87.7778 120.056 73.7778 108.194 63.2778 89.7222C50.6389 67.9444 48.1111 46.75 57.6389 41.3056C67.1666 35.8611 84.2778 48.5 96.9167 70.2778C102.75 80.3889 106.639 90.8889 107.806 99.8333C109.167 109.361 107.222 115.972 102.361 118.889C100.806 119.667 99.25 120.056 97.5 120.056ZM59.5833 44.6111C53.1666 48.3056 54.3333 66.5833 66.5833 87.7778C78.8333 108.972 94 119.083 100.417 115.389C103.722 113.444 104.889 108 103.917 100.222C102.75 91.8611 99.0555 81.9444 93.4167 72.2222C81.1666 51.0278 66 40.9167 59.5833 44.6111Z"></path>
<path fill="#00D8FF" d="M79.9995 87.7779C84.295 87.7779 87.7772 84.2956 87.7772 80.0001C87.7772 75.7045 84.295 72.2223 79.9995 72.2223C75.7039 72.2223 72.2217 75.7045 72.2217 80.0001C72.2217 84.2956 75.7039 87.7779 79.9995 87.7779Z"></path>
</svg>
